<?xml version='1.0' encoding='utf-8'?>
<!-- Generator: imaengine 6.0   -->
<svg xmlns:xlink="http://www.w3.org/1999/xlink" xmlns="http://www.w3.org/2000/svg" viewBox="0,0,1518,1518" style="enable-background:new 0 0 1518 1518;" version="1.1">
<defs/>
<g id="layer0">
<path d="M608.491,1261.29C620.748,1261.5 625.754,1261.18 629.345,1260.01C631.923,1259.17 634.546,1258.51 635.365,1258.51C637.491,1258.51 660.224,1251.02 663.976,1249.08C665.706,1248.19 671.021,1246.2 675.882,1244.62C680.742,1243.05 686.218,1240.99 687.958,1240.09C689.698,1239.19 695.008,1237.19 699.851,1235.61C704.694,1234.03 710.732,1231.82 713.207,1230.71C721.057,1227.2 728.409,1224.33 737.163,1221.36C741.838,1219.77 748.175,1217.39 751.2,1216.08C760.314,1212.15 767.204,1209.43 776.672,1206.01C785.19,1202.94 798.103,1197.84 804.703,1194.94C806.353,1194.22 808.764,1193.32 810.139,1192.93C811.514,1192.54 814.821,1191.18 817.39,1189.95C819.96,1188.72 823.139,1187.45 824.572,1187.09C826.005,1186.73 829.61,1185.37 832.483,1184.09C842.052,1179.84 848.585,1177.27 857.162,1174.36C861.837,1172.78 869.535,1169.72 874.21,1167.59C883.016,1163.57 887.492,1161.86 892.624,1160.55C894.274,1160.14 899.104,1158.04 903.229,1155.95C907.354,1153.86 911.974,1151.85 913.624,1151.43C917.963,1150.33 922.81,1148.58 930.197,1145.47C937.589,1142.35 942.29,1140.65 946.624,1139.55C948.274,1139.14 952.636,1137.28 956.189,1135.48C962.388,1132.34 970.266,1129.29 976.633,1127.56C978.283,1127.11 983.523,1124.85 988.169,1122.58C992.815,1120.31 996.998,1118.51 997.737,1118.51C998.475,1118.51 1001.15,1117.51 1003.41,1116.36C1005.66,1115.21 1011.76,1112.82 1017.05,1111.01C1022.34,1109.21 1029.17,1106.71 1032.19,1105.47C1035.22,1104.23 1040.17,1102.21 1043.19,1100.97C1057.62,1095.06 1060.01,1094.12 1064.72,1092.47C1071,1090.28 1080.24,1085.68 1082.65,1083.55C1084.48,1081.93 1088.04,1079.62 1094.34,1075.94C1104.91,1069.75 1134.5,1035.03 1134.51,1028.85C1134.51,1028.11 1135.81,1024.86 1137.46,1021.38C1139.11,1017.89 1140.5,1013.85 1140.5,1012.66C1140.5,1010.4 1142.72,1003.02 1145.08,997.412C1145.84,995.606 1146.51,991.527 1146.51,988.588C1146.51,985.649 1147.14,981.824 1147.97,979.849C1148.79,977.875 1149.51,974.305 1149.51,972.154C1149.51,970.004 1150.14,966.824 1150.97,964.849C1151.79,962.875 1152.51,958.63 1152.51,955.654C1152.51,952.679 1153.14,948.824 1153.97,946.849C1154.79,944.875 1155.51,941.755 1155.51,940.154C1155.51,938.554 1156.14,935.824 1156.97,933.849C1157.79,931.875 1158.51,927.855 1158.51,925.154C1158.51,922.454 1159.14,918.824 1159.97,916.849C1160.79,914.875 1161.51,911.305 1161.51,909.154C1161.51,907.004 1162.14,903.824 1162.97,901.849C1163.79,899.875 1164.51,896.305 1164.51,894.154C1164.51,892.004 1165.14,888.824 1165.97,886.849C1166.79,884.875 1167.51,881.305 1167.51,879.154C1167.51,877.004 1168.14,873.824 1168.97,871.849C1169.79,869.875 1170.51,865.63 1170.51,862.654C1170.51,859.679 1171.14,855.824 1171.97,853.849C1172.79,851.875 1173.51,848.445 1173.51,846.466C1173.51,844.488 1173.91,842.245 1174.47,841.192C1175.03,840.139 1175.99,836.065 1176.54,832.342C1177.08,828.619 1178.22,822.228 1179.08,818.103C1179.94,813.978 1181.06,807.043 1181.56,802.746C1182.05,798.45 1182.67,794.682 1183.02,794.119C1184.18,792.244 1186.62,780.65 1187.46,772.88C1187.92,768.659 1188.54,764.894 1188.94,764.256C1190.17,762.267 1192.59,750.899 1193.45,742.947C1193.91,738.763 1194.72,734.589 1195.33,733.447C1195.95,732.305 1196.53,729.42 1196.55,727.322C1196.57,725.223 1197.21,721.872 1198,719.672C1198.8,717.472 1199.48,714.097 1199.49,712.378C1199.5,710.66 1200.15,707.507 1200.98,705.168C1201.8,702.83 1202.51,699.216 1202.51,697.342C1202.51,695.469 1203.14,692.515 1203.97,690.541C1204.79,688.566 1205.51,684.321 1205.51,681.346C1205.51,678.37 1206.14,674.515 1206.97,672.541C1207.79,670.566 1208.51,666.996 1208.51,664.846C1208.51,662.695 1209.14,659.515 1209.97,657.541C1210.79,655.566 1211.51,651.996 1211.51,649.846C1211.51,647.695 1212.14,644.515 1212.97,642.541C1213.79,640.566 1214.51,636.996 1214.51,634.846C1214.51,632.695 1215.14,629.515 1215.97,627.541C1216.79,625.566 1217.51,621.321 1217.51,618.346C1217.51,615.37 1218.14,611.515 1218.97,609.541C1219.79,607.566 1220.51,603.321 1220.51,600.346C1220.51,597.37 1221.14,593.515 1221.97,591.541C1222.97,589.13 1223.51,584.337 1223.51,577.346C1223.51,570.355 1222.97,565.562 1221.97,563.151C1221.14,561.176 1220.51,558.453 1220.51,556.861C1220.51,553.947 1210.23,532.283 1208.28,531.08C1207.71,530.725 1206.53,528.891 1205.45,526.76C1202.26,520.512 1185.44,509.987 1173.22,506.645C1162.15,503.619 1142.53,505.09 1128.19,510.038C1118.94,513.231 1116.37,513.343 1113.29,510.076C1110.94,507.573 1110.99,507.259 1110.48,488.159C1110.16,475.938 1109.45,467.231 1108.69,465.483C1108.02,463.934 1107.51,461.896 1107.51,460.706C1107.51,454.209 1098.31,436.707 1090.45,428.331C1082.39,419.738 1063.01,409.494 1054.86,409.494C1052.7,409.494 1049.52,408.858 1047.54,408.033C1042.77,406.042 1024.83,406.014 1019.33,407.995C1017.13,408.788 1013.92,409.433 1011.99,409.465C1010.07,409.497 1006.38,410.232 1003.99,411.064C996.653,413.619 989.506,410.752 989.506,405.059C989.506,401.614 979.538,387.875 975.084,385.223C962.378,377.661 957.711,376.296 946.409,376.775C936.863,377.179 932.966,377.903 922.583,381.211C917.146,382.943 914.295,382.872 912.22,379.532C910.146,376.192 909.506,370.065 909.506,359.582C909.506,348.825 909.069,343.787 907.967,341.151C907.142,339.176 906.503,336.797 906.499,335.626C906.495,334.456 905.372,330.116 904.036,326.18C897.692,307.489 887.265,295.525 869.826,286.922C863.832,283.965 857.476,281.494 855.974,281.494C854.473,281.494 851.824,280.858 849.849,280.033C844.778,277.914 818.222,277.914 813.151,280.033C811.176,280.858 808.102,281.494 806.08,281.494C804.058,281.494 798.432,282.864 793.784,284.503C789.135,286.142 784.591,287.47 783.491,287.489C782.391,287.508 773.461,290.244 763.836,293.535C754.211,296.826 745.736,299.492 744.802,299.493C742.494,299.494 695.154,315.313 690.766,317.551C688.837,318.535 685.511,319.8 683.255,320.407C678.186,321.772 653.491,337.981 648.669,343.113C641.843,350.379 629.494,370.853 629.494,374.838C629.494,375.604 628.86,378.165 628.057,380.714C627.254,383.263 625.676,388.406 624.552,392.136C616.773,417.953 605.087,426.874 560.343,441.527C495.825,462.655 495.767,462.922 494.125,473.676C492.86,481.959 499.673,490.506 507.502,490.506C510.808,490.506 527.845,485.931 533.697,483.465C534.797,483.001 536.954,482.366 538.604,482.018C540.254,481.67 545.267,480.108 549.667,478.568C554.067,477.029 560.341,474.997 563.641,474.042C573.515,471.185 595.291,463.415 601.712,460.457C605.012,458.937 609.512,456.865 611.712,455.853C631.68,446.665 647.686,427.222 655.474,402.653C660.748,386.016 664.23,377.407 668.021,371.696C671.889,365.868 682.478,355.506 684.67,355.506C685.402,355.506 686.506,354.58 686.506,354.067C686.506,353.554 687.163,353.302 688.401,352.916C689.638,352.529 691.135,351.716 691.41,351.337C692.032,350.477 707.752,344.304 715.152,341.971C718.177,341.017 721.271,339.731 721.793,339.249C722.316,338.766 723.331,338.491 724.458,338.472C725.586,338.453 728.52,337.518 730.72,336.456C732.92,335.393 735.303,334.559 736.273,334.54C737.243,334.521 739.034,334.064 739.989,333.588C740.944,333.113 745.02,331.742 749.145,330.504C763.539,326.183 766.683,325.223 770.656,323.94C774.576,322.673 790.731,317.822 798.64,315.536C830.528,306.32 849.346,308.17 863.441,322.092C872.55,331.088 874.229,336.822 876.663,366.042C879.206,396.579 879.439,396.464 867.835,400.472C864.26,401.707 860.398,403.124 859.298,403.604C858.198,404.083 848.788,407.351 838.338,410.883C827.888,414.416 810.108,420.543 798.833,424.497C787.558,428.45 763.04,436.8 744.34,443.054C725.64,449.309 687.613,462.125 659.838,471.534C632.063,480.943 595.389,493.322 578.339,499.042C551.2,508.148 543.08,510.983 526.824,517.03C464.781,540.11 433.053,573.764 425.939,623.907C424.451,634.398 423.792,698.12 425.023,712.543C425.305,715.843 425.978,730.444 426.522,745.019C427.065,759.594 427.932,781.197 428.448,793.022C428.963,804.847 429.659,823.066 429.994,833.516C430.329,843.966 430.98,859.726 431.441,868.526C431.902,877.326 432.365,888.337 432.472,893.012C432.578,897.687 432.965,908.497 433.33,917.022C433.725,926.233 433.838,933.52 433.686,938.438C433.533,943.356 433.887,945.453 433.22,945.041C432.695,944.717 432.506,944.009 432.506,942.941C432.506,941.873 431.617,940.494 431.148,940.494C430.749,940.494 430.772,939.617 430.115,936.541C429.459,933.465 428.622,928.617 427.485,921.421C425.572,909.32 424.397,900.494 420.498,868.938C419.377,859.863 417.792,847.26 416.976,840.935C414.665,823.031 409.765,779.567 407.507,756.95C406.382,745.675 405.019,732.816 404.481,728.387C403.943,723.958 403.506,718.322 403.506,715.786C403.506,713.251 402.855,706.011 402.065,699.775C401.274,693.539 399.929,679.685 399.072,668.96C398.215,658.235 397.034,643.609 396.446,636.459C395.858,629.309 394.961,616.943 394.451,608.968C393.941,600.993 393.066,591.136 392.511,587.109C391.11,576.95 391.303,554.822 392.859,547.607C394.255,541.131 395.28,538.981 399.891,532.803C404.082,527.188 404.062,527.208 410.782,523.378C419.791,518.243 422.798,516.881 432.645,513.477C444.444,509.398 448.506,505.323 448.506,498C448.506,491.143 444.452,486.079 438.353,484.178C432.254,482.277 423.414,483.069 413.811,486.933C384.176,498.855 369.188,513.733 362.414,537.863C360.017,546.402 361.011,583.831 364.391,611.561C365.361,619.519 367.035,636.008 369.973,666.548C373.807,706.404 375.785,725.294 378.561,748.56C380.202,762.31 382.246,779.633 383.105,787.058C383.963,794.483 386.637,814.969 389.045,832.569C393.415,864.506 396.386,887.318 399.006,909.061C399.768,915.386 400.834,923.72 401.373,927.57C401.912,931.42 403.083,941.305 403.977,949.555C404.871,957.805 406.017,966.841 406.518,969.591C407.018,972.341 407.65,977.909 407.93,982.034C408.211,986.159 409.084,993.408 409.864,998.083C410.644,1002.76 412.059,1011.97 413.01,1018.57C416.589,1043.39 421.815,1057.15 429.715,1062.99C434.291,1066.38 435.181,1068.75 436.078,1079.07C436.895,1088.49 436.538,1089.07 428.792,1088.15C417.402,1086.81 407.165,1079.45 400.159,1067.62C393.044,1055.6 391.891,1049.89 383.003,984.432C381.584,973.982 379.554,959.576 378.493,952.426C377.431,945.276 375.873,934.036 375.029,927.436C374.185,920.836 372.593,909.351 371.494,901.926C369.168,886.223 364.932,855.249 362.949,839.437C362.19,833.387 361.138,825.282 360.613,821.432C360.087,817.582 358.483,805.435 357.048,794.435C355.613,783.435 353.576,768.354 352.521,760.929C351.467,753.504 349.872,741.81 348.976,734.935C348.08,728.06 346.706,717.872 345.923,712.301C345.141,706.731 344.479,699.82 344.446,696.866C344.414,693.912 343.969,689.159 343.468,686.409C342.456,680.849 339.335,657.353 336.963,637.44C336.112,630.29 334.974,621.5 334.438,617.925C333.398,610.991 331.117,589.814 329.38,570.954C328.091,556.971 328.946,534.45 331.097,525.904C335.071,510.115 348.458,491.335 361.771,482.879C363.421,481.831 365.106,480.621 365.381,480.306C368.587,476.63 385.167,469.213 406.165,461.99C439.501,450.522 454.28,445.539 461.147,443.453C465.272,442.2 469.408,440.789 470.233,440.361C471.058,439.933 477.726,437.71 485.151,435.38C492.576,433.05 499.394,430.792 500.219,430.395C501.044,429.998 504.335,428.957 507.635,428.042C510.935,427.128 514.585,426.01 515.685,425.578C516.785,425.145 522.827,423.169 529.152,421.172C547.549,415.362 581.15,404.437 587.542,402.187C595.131,399.515 597.497,395.97 597.502,387.15C597.506,381.232 597.121,380.206 593.881,376.965C590.415,373.499 589.997,373.342 582.247,373.737C577.972,373.955 572.746,374.76 570.821,375.488C568.896,376.215 565.759,377.353 563.834,378.022C561.909,378.691 558.754,379.806 556.829,380.497C554.904,381.189 551.39,382.078 548.915,382.501C546.44,382.924 542.754,383.859 540.829,384.55C538.904,385.242 535.759,386.353 533.834,387.022C531.909,387.691 528.757,388.792 526.832,389.469C524.907,390.145 522.022,391.038 520.372,391.469C518.722,391.899 516.182,392.737 514.807,393.304C513.432,393.87 503.572,397.095 492.847,400.487C471.233,407.323 470.773,407.476 448.833,415.139C418.473,425.743 407.044,429.494 404.867,429.494C403.653,429.494 399.497,430.82 395.878,432.39C388.475,435.602 383.78,437.327 379.375,438.45C374.814,439.612 344.214,455.244 342.561,457.249C341.763,458.217 338.976,460.355 336.226,462.127C330.884,465.569 317.494,479.062 317.494,480.925C317.494,481.541 315.899,483.607 313.788,485.932C310.094,490.002 303.494,501.989 303.494,504.57C303.494,505.258 302.193,508.457 300.543,511.944C298.894,515.431 297.495,519.752 297.495,521.282C297.494,522.812 296.858,525.485 296.033,527.459C293.857,532.668 293.857,574.332 296.033,579.541C296.963,581.766 297.494,586.132 297.494,591.346C297.494,596.559 298.103,601.315 299.033,603.541C300.024,605.912 300.494,610.299 300.494,616.846C300.494,623.392 301.042,628.169 302.033,630.541C302.967,632.776 303.507,637.252 303.529,642.72C303.553,648.441 304.13,652.623 305.061,654.251C306.037,655.959 306.434,659.761 306.459,666.784C306.482,673.589 307.04,678.473 308.033,680.849C308.864,682.838 309.494,687.257 309.494,691C309.494,694.743 310.202,699.552 311.033,701.541C311.963,703.766 312.494,708.132 312.494,713.346C312.494,718.559 313.103,723.315 314.033,725.541C314.963,727.766 315.494,732.132 315.494,737.346C315.494,742.559 316.103,747.315 317.033,749.541C317.937,751.705 318.494,756.076 318.494,760.842C318.494,765.314 319.174,770.764 320.023,773.168C320.848,775.507 321.494,779.615 321.494,782.504C321.494,785.392 322.208,789.566 323.033,791.541C323.975,793.794 324.5,798.207 324.509,803.719C324.518,808.81 325.16,814.353 325.995,816.672C326.788,818.872 327.426,823.069 327.45,826.205C327.474,829.341 328.185,834.621 329.01,837.789C329.835,840.956 330.501,846.139 330.509,849.461C330.517,852.783 331.203,857.471 331.995,859.671C332.788,861.871 333.426,866.961 333.45,871.188C333.474,875.414 334.016,880.319 334.613,881.867C335.644,884.543 336.356,890.54 338.462,913.761C338.971,919.379 339.92,925.055 340.5,926.138C341.08,927.221 341.494,931.063 341.494,934.966C341.494,939.013 342.178,943.802 343.033,945.849C343.875,947.865 344.494,952.274 344.494,956.154C344.494,960.034 345.191,964.834 346.033,966.849C346.875,968.865 347.494,973.274 347.494,977.154C347.494,981.034 348.191,985.834 349.033,987.849C349.858,989.824 350.494,994.058 350.494,997.496C350.494,1000.94 351.198,1005.83 352.023,1008.17C352.871,1010.57 353.494,1015.69 353.494,1020.16C353.494,1024.92 354.129,1029.69 355.033,1031.85C355.911,1033.95 356.494,1038.33 356.494,1042.69C356.494,1046.78 357.093,1051.36 357.749,1052.56C358.404,1053.76 359.197,1056.6 359.577,1059.08C361.547,1071.89 372.245,1091.82 382.332,1101.48C390.525,1109.31 406.293,1118.51 411.451,1118.51C412.831,1118.51 415.557,1119.18 417.739,1120.06C421.671,1121.63 429.251,1121.62 438.196,1119.98C442.495,1119.19 445.494,1122.21 445.494,1127.2C445.494,1132.98 454.33,1149.29 461.506,1156.69C476.729,1172.39 495.256,1179.46 511.842,1175.96C519.092,1174.42 522.494,1178.95 522.494,1189.55C522.494,1201.45 534.675,1226.07 546.329,1237.66C554.385,1245.68 573.246,1256.59 581.49,1258.02C583.648,1258.4 586.918,1259.2 588.843,1259.83C590.768,1260.47 599.691,1261.13 608.491,1261.29ZM587.799,1224.37C585.345,1225.18 576.307,1219.26 570.498,1213.21C560.004,1202.28 556.135,1191.1 553.505,1164.45C552.134,1150.55 547.993,1103.21 546.026,1078.96C545.201,1068.78 543.849,1052.81 543.023,1043.46C542.196,1034.11 540.833,1017.01 539.992,1005.46C537.422,970.156 534.563,934.778 531.991,906.454C528.376,866.637 526.505,840.536 525.939,821.985C525.662,812.91 524.988,802.28 524.448,798.43C522.924,787.566 520.863,752.436 519.459,720.375C518.055,688.314 516.391,659.682 517.51,661.289C517.902,661.853 519.066,661.752 519.231,661.169C519.397,660.587 519.485,659.237 519.491,657.273C519.51,650.595 524.17,636.114 527.783,631.522C533.283,624.533 540.093,618.421 547.467,613.86C552.295,610.874 556.253,608.506 556.588,608.506C556.923,608.506 558.822,607.829 560.555,607.055C562.288,606.28 570.637,603.314 579.162,600.442C587.687,597.57 595.814,594.755 597.189,594.2C601.386,592.507 624.418,584.414 628.142,583.324C630.067,582.761 632.277,581.772 632.799,581.273C633.322,580.774 634.408,580.506 635.641,580.506C636.874,580.506 638.569,579.851 638.883,579.343C639.197,578.835 640.585,578.34 642.367,577.962C644.148,577.584 649.049,576.022 653.174,574.515C657.299,573.008 663.803,570.782 667.653,569.56C671.503,568.339 675.52,566.885 676.475,566.375C677.43,565.864 678.466,565.506 679.068,565.506C680.205,565.506 707.194,556.104 710.712,554.478C711.812,553.969 716.886,552.19 722.054,550.498C734.712,546.353 736.841,544.838 738.865,539.209C741.774,531.122 738.615,522.916 731.479,519.896C725.122,517.205 727.219,516.532 664.338,537.83C645.638,544.164 624.48,551.439 617.33,553.994C605.839,558.1 587.297,564.695 558.331,574.979C513.85,590.772 493.604,612.611 486.921,651.915C484.604,665.541 485.641,710.739 489.587,767.535C490.16,775.785 491.009,790.633 491.473,800.545C491.938,810.456 492.596,820.194 492.928,822.107C493.661,826.329 495.026,845.945 496.965,880.029C497.763,894.054 499.312,917.912 500.407,933.037C501.501,948.162 503.123,970.885 504.011,983.535C504.899,996.185 506.773,1020.27 508.174,1037.04C509.574,1053.82 511.052,1078.76 511.458,1092.51C512.022,1111.59 512.608,1118.65 513.822,1121.78C515.553,1126.24 516.704,1143.9 515.306,1145.31C513.703,1146.91 505.327,1145.74 500.022,1143.3C494.568,1140.8 486.317,1133.31 483.89,1128.64C480.922,1122.93 478.528,1111.15 477.561,1097.6C475.955,1075.13 471.438,983.851 468.474,913.979C467.903,900.504 467.013,880.027 466.498,868.477C465.983,856.927 464.866,830.829 464.017,810.479C463.167,790.129 462.001,766.031 461.428,756.941C458.37,708.498 457.637,638.605 460.069,626.456C466.755,593.055 482.929,573.342 517.397,556.535C524.357,553.141 531.256,549.997 532.815,549.513C534.374,549.029 538.16,547.65 541.185,546.463C559.138,539.418 579.652,532.105 603.158,524.368C611.683,521.562 620.052,518.662 621.702,517.945C623.352,517.227 629.832,514.971 636.157,512.911C642.482,510.85 649.116,508.545 650.849,507.807C652.582,507.069 654.47,506.506 655.287,506.506C656.103,506.506 658.294,505.776 659.87,504.955C661.445,504.133 663.238,503.516 664.138,503.512C665.037,503.509 667.294,502.776 668.87,501.955C670.445,501.133 672.487,500.516 673.692,500.512C674.897,500.509 676.569,499.851 676.883,499.343C677.197,498.835 678.585,498.339 680.367,497.961C686.87,496.58 799.391,458.639 860.167,437.332C936.254,410.658 944.84,408.157 951.493,412.355C955.584,414.937 958.447,420.108 956.938,422.537C956.343,423.494 950.314,425.999 942.744,428.564C935.371,431.062 922.587,435.401 914.337,438.205C906.087,441.01 897.783,443.759 895.858,444.322C893.933,444.885 884.457,448.129 874.832,451.521C865.207,454.912 853.733,458.946 849.333,460.485C799.141,478.046 773.107,498.606 762.588,528.834C761.345,532.409 759.988,536.219 759.566,537.319C759.145,538.419 758.013,541.823 757.063,544.848C753.622,555.806 747.299,566.192 740.457,572.098C731.906,579.478 725.936,581.762 649.84,607.186C582.869,629.561 572.735,634.305 561.211,648.276C545.843,666.908 542.389,688.637 546.267,743.536C546.966,753.436 548.212,772.556 549.035,786.031C552.094,836.073 553.629,857.892 554.982,870.554C555.745,877.704 556.829,888.497 557.39,894.547C557.951,900.597 559.12,912.973 559.986,922.048C563.109,954.737 567.438,1006.89 568.492,1024.53C569.084,1034.43 569.823,1045.03 570.131,1048.05C570.44,1051.08 571.041,1082.53 571.469,1118.01C572.398,1194.91 572.785,1197.53 584.263,1215.53C586.465,1218.99 587.69,1221.12 588.187,1222.58C588.683,1224.03 588.718,1224.06 587.799,1224.37ZM636.503,1218.93C620.484,1218.83 609.859,1212.46 603.838,1199.3C599.893,1190.69 599.415,1185.12 599.883,1155.37C600.549,1113.04 602.737,1079.28 607,1045.56C607.765,1039.51 609.104,1028.48 609.976,1021.06C610.847,1013.63 612.006,1004.42 612.554,1000.57C613.102,996.721 613.966,988.592 614.47,982.542C614.974,976.492 615.826,969.349 616.373,966.599C616.919,963.849 617.841,956.598 618.412,950.548C619.393,940.16 620.733,929.034 624.071,903.566C624.864,897.516 626.166,886.933 626.964,880.058C629.396,859.102 630.44,850.868 631.527,844.08C632.1,840.505 632.984,834.186 633.488,830.061C635.095,816.927 637.371,799.803 638.471,792.576C639.057,788.726 640.237,780.849 641.094,775.074C644.859,749.699 653.616,732.012 670.478,715.756C684.37,702.362 700.41,693.64 736.181,679.981C738.106,679.246 742.832,677.427 746.682,675.941C750.532,674.454 766.713,668.797 782.663,663.36C798.613,657.924 812.613,653.039 813.713,652.529C814.813,652.019 818.124,650.865 821.149,649.935C824.174,649.005 828.039,647.687 829.689,647.024C831.339,646.361 835.583,644.867 839.158,643.691C849.77,640.201 959.54,601.504 961.714,600.488C962.814,599.973 965.207,599.157 967.132,598.638C970.908,597.618 1000.52,587.289 1019.17,580.482C1025.5,578.175 1032.69,575.598 1035.16,574.752C1037.64,573.905 1040.27,572.718 1040.79,572.241C1041.31,571.764 1042.06,571.506 1042.88,571.506C1043.69,571.506 1048.16,570.161 1052.6,568.555C1137.87,537.702 1148.32,534.837 1163.39,538.851C1185.71,544.795 1192.3,564.525 1185.58,604.11C1182.07,624.782 1173.8,669.007 1167.02,703.402C1165.18,712.752 1162.69,725.582 1161.51,731.907C1160.32,738.232 1155.83,761.177 1151.53,782.902C1147.24,804.627 1142.13,830.73 1140.17,840.905C1129.32,897.391 1125.07,919.342 1121.59,936.902C1119.46,947.627 1116.94,960.914 1115.99,966.414C1109.14,1005.99 1104.75,1017.7 1090.46,1034.19C1078.9,1047.53 1066.08,1055.8 1040.65,1066.35C1036.61,1068.02 1028.35,1071.5 1022.3,1074.06C1016.25,1076.63 1008.93,1079.57 1006,1080.6C1003.06,1081.63 996.961,1084.02 992.47,1085.9C963.223,1098.12 922.267,1114.58 906.323,1120.51C892.133,1125.8 842.107,1145.74 837.282,1148.04C833.842,1149.68 819.971,1155.1 808.301,1159.36C792.411,1165.16 786.511,1167.43 748.815,1182.23C739.74,1185.8 729.615,1189.77 726.315,1191.06C723.015,1192.36 719.041,1193.72 717.405,1194.12C715.768,1194.51 711.404,1196.2 707.815,1197.83C700.423,1201.18 675.24,1210.91 663.559,1214.92C653.715,1218.31 648.953,1219.01 636.503,1218.93ZM586.424,928C585.397,925.411 584.444,910.932 582.533,868.977C581.919,855.502 580.964,839.95 580.414,834.45C579.863,828.95 578.987,810.759 578.464,793.984C577.94,777.209 577.06,752.005 576.509,737.98C575.95,723.77 575.663,712.241 575.648,704.832C575.633,697.422 574.892,694.266 575.427,696.612C575.678,697.712 576.874,697.891 577.074,697.009C577.273,696.127 577.474,694.108 577.685,690.966C578.002,686.253 578.643,681.72 579.173,680.658C579.703,679.595 581.157,676.613 582.401,674.039C585.519,667.579 592.851,660.972 600.926,657.316C612.692,651.988 613.773,651.506 615.036,651.506C615.715,651.506 633.131,645.938 653.544,639.164C673.958,632.391 695.378,625.357 701.153,623.53C706.928,621.704 713.044,619.634 714.694,618.948C716.344,618.262 720.803,616.714 724.653,615.488C728.503,614.263 732.273,612.747 732.796,612.258C733.318,611.769 734.109,611.506 734.976,611.506C735.843,611.506 740.614,609.512 745.3,607.141C769.909,594.687 781.646,579.496 792.585,545.845C799.879,523.408 813.87,509.195 838.693,498.968C840.893,498.061 844.049,496.741 845.699,496.037C847.349,495.334 852.505,493.308 857.18,491.526C861.855,489.745 867.124,487.643 868.857,486.869C870.591,486.095 872.289,485.506 872.884,485.506C873.479,485.506 882.572,482.634 892.894,479.157C903.216,475.679 914.344,472.038 917.644,471.06C920.944,470.081 925.042,468.708 926.692,468.03C928.342,467.352 936.858,464.438 945.658,461.538C954.458,458.639 962.791,455.875 964.166,455.399C1017.88,436.789 1047.67,435.416 1065.5,451.013C1070.96,455.79 1073.74,460.265 1076.06,467.952C1077.57,472.984 1079.28,517.666 1078.13,522.24C1077.16,526.117 1072.9,527.701 1026.33,543.95C1013.13,548.556 993.776,555.457 983.326,559.282C972.876,563.108 956.913,568.747 947.838,571.819C922.477,580.405 906.469,586.141 901.14,588.55C894.844,591.395 883.072,595.494 881.141,595.494C880.311,595.494 877.582,596.428 875.346,597.509C873.109,598.589 867.073,600.797 861.848,602.448C851.538,605.705 801.587,622.539 787.832,627.392C783.157,629.041 771.683,633.066 762.333,636.337C689.468,661.826 665.385,673.874 643.525,695.678C621.442,717.705 611.912,739.481 605.401,782.925C602.899,799.613 599.232,827.276 598.504,834.952C598.06,839.627 597.014,848.152 596.176,853.927C595.338,859.702 594.136,870.079 593.509,876.954C591.685,896.961 588.54,923.034 587.463,926.789L586.909,930.5L586.424,928Z" fill="#491717"/>
<path d="M587.564,1225.31C588.766,1225.61 589.71,1224.29 589.206,1222.68C588.702,1221.07 587.296,1218.41 585.116,1214.99C573.639,1196.99 573.41,1194.9 572.481,1117.99C572.053,1082.52 571.447,1050.97 571.137,1047.95C570.828,1044.92 569.842,1030.77 568.945,1016.47C568.047,1002.17 567,989.971 566.79,989.755C566.686,989.646 565.738,991.146 565.696,993.099C565.654,995.052 565.648,997.819 565.689,1000.89C565.788,1008.28 565.59,1012.09 564.814,1012.87C564.17,1013.51 563.494,1015.63 563.494,1017.14C563.494,1018.65 563.272,1019.74 562.707,1020.09C562.143,1020.43 561.53,1021.76 561.631,1022.4C561.733,1023.05 561.563,1023.98 561.214,1024.8C560.494,1026.5 558.256,1034.77 555.484,1045.99C553.311,1054.79 549.711,1063.52 547.399,1065.43C546.554,1066.13 546.941,1066.72 546.566,1065.77C546.19,1064.81 545.875,1062.61 545.156,1057.92C544.663,1054.71 543.538,1056.58 543.706,1061.02C543.875,1065.46 544.331,1072.6 544.985,1080.04C545.782,1089.12 547.57,1109.59 548.96,1125.54C552.127,1161.91 554.079,1180.06 555.571,1187.1C559.313,1204.77 573.687,1221.9 587.564,1225.31Z" fill="#E92D2B"/>
<path d="M636.474,1220.26C644.962,1220.69 654.15,1219.21 664.164,1215.78C675.486,1211.9 700.863,1202.09 708.233,1198.75C711.822,1197.12 716.007,1195.5 717.644,1195.1C719.28,1194.7 723.385,1193.3 726.685,1192.01C729.985,1190.71 740.11,1186.74 749.185,1183.17C786.881,1168.37 792.758,1166.11 808.648,1160.31C820.318,1156.05 834.278,1150.6 837.718,1148.96C842.542,1146.66 892.486,1126.74 906.677,1121.46C922.62,1115.53 963.613,1099.05 992.86,1086.83C997.351,1084.95 1003.4,1082.58 1006.33,1081.55C1009.27,1080.52 1016.65,1077.56 1022.7,1075C1028.75,1072.43 1037,1068.96 1041.03,1067.28C1066.47,1056.73 1079.66,1048.2 1091.23,1034.85C1105.52,1018.36 1110.14,1006.17 1116.99,966.586C1117.94,961.086 1120.45,947.823 1122.58,937.098C1126.06,919.539 1130.31,897.582 1141.16,841.095C1143.12,830.92 1148.23,804.823 1152.53,783.098C1156.82,761.373 1161.31,738.418 1162.5,732.093C1163.69,725.768 1166.17,712.948 1168.01,703.598C1173.43,676.116 1181.61,632.566 1187.18,601.589C1189.13,590.719 1189.33,568.546 1187.58,563.222L1186.17,560.5L1185.58,563.535C1185.53,565.204 1184.61,568.995 1183.5,572.164C1182.38,575.333 1180.78,580.908 1179.95,584.488C1179.12,588.067 1177.59,593.272 1176.53,596.129C1175.48,598.987 1174.17,603.185 1173.66,605.385C1172.64,609.738 1159.85,646.535 1154.04,661.82C1152.05,667.045 1149.02,675.377 1147.31,680.318C1145.59,685.258 1141.88,693.976 1139.03,699.76C1133.42,711.154 1127.06,724.512 1124.97,729.297C1124.24,730.947 1121.42,737.02 1118.68,742.809C1115.94,748.598 1113.07,755.301 1112.35,757.625C1111.62,759.948 1111.19,761.494 1110.79,761.494C1109.28,761.494 1101.49,780.09 1101.49,783.835C1101.49,784.806 1101.1,785.782 1100.44,786.442C1100.01,786.874 1099.64,787.507 1099.63,787.699C1099.62,787.891 1100.33,788.506 1100.74,788.506C1101.37,788.506 1102.59,787.816 1102.93,787.266C1103.27,786.716 1105.14,786.506 1107.61,786.506C1114.79,786.506 1119.33,790.345 1121.18,795.767C1123.03,801.189 1121.86,807.312 1116.37,812.272C1112.61,815.666 1112.49,815.696 1106.97,815.297C1105.37,815.181 1103.9,815.162 1102.93,815.225C1101.96,815.288 1101.03,816.204 1101.16,816.416C1101.63,817.18 1101.34,817.374 1098.19,823.421C1097.29,825.155 1096.49,827.432 1096.49,828.193C1096.49,828.954 1095.68,831.056 1094.61,833.144C1093.55,835.233 1092.88,837.943 1093.16,838.666C1093.44,839.388 1093.39,839.664 1092.8,840.027C1092.21,840.391 1091.49,841.917 1091.49,842.894C1091.49,845.782 1087.89,855.84 1083.57,865.102C1081.35,869.855 1079.49,874.261 1079.49,874.632C1079.49,875.003 1078.38,877.545 1076.96,880.545C1075.54,883.545 1074.09,887.778 1073.78,889.781C1073.47,891.784 1072.82,893.837 1072.21,894.628C1071.77,895.192 1071.52,896.047 1071.58,896.169C1071.64,896.292 1072.61,896.46 1073.2,896.213C1091.81,888.414 1094.17,888.064 1100.29,893.683C1104.46,897.509 1105.74,902.129 1104.27,907.925C1103.04,912.785 1099.72,915.48 1091.29,918.727C1089.2,919.532 1087.76,920.185 1087.14,920.608C1086.52,921.032 1086.82,922.2 1087.58,922.307C1089.48,922.578 1089.88,922.943 1089.56,925.209C1089.24,927.474 1087.8,930.917 1085.07,936.501C1079.9,947.06 1077.6,952.435 1077.33,954.433C1077.26,954.983 1076.67,955.646 1075.79,956.316C1075.13,956.818 1075.13,958.008 1075.7,958.193C1076.27,958.377 1077.73,958.463 1080,958.478C1091.92,958.555 1097.69,967.304 1093.09,978.323C1090.84,983.697 1084.39,987.112 1055.06,999.05C1051.22,1000.61 1048.9,1001.65 1047.78,1002.37C1046.66,1003.09 1046.63,1004.37 1047.29,1004.85C1047.98,1005.35 1048.03,1005.23 1047.43,1006.39C1046.83,1007.55 1045.48,1009.27 1042.95,1012.34C1039.74,1016.23 1035.66,1020.39 1033.77,1021.7C1030.69,1023.83 1026.07,1027.47 1020.18,1032.41C1019.08,1033.33 1016.86,1034.99 1015.21,1036.13C1013.56,1037.27 1006.81,1041.96 1000.21,1046.54C993.611,1051.13 985.565,1056.26 982.265,1057.99C960.518,1069.39 951.883,1074.07 949.554,1075.72C948.094,1076.74 946.815,1077.49 946.354,1077.49C945.894,1077.49 942.143,1079.07 938.288,1080.94C931.081,1084.44 928.297,1085.67 918.809,1089.54C915.784,1090.77 910.563,1093.23 907.263,1094.98C903.963,1096.74 899.075,1098.97 896.325,1099.98C893.575,1100.99 888.74,1103.1 885.642,1104.65C882.545,1106.19 874.95,1109.32 868.703,1111.61C862.456,1113.91 856.341,1116.43 855.236,1117.14C854.13,1117.85 850.999,1119.3 848.167,1120.41C845.334,1121.51 839.679,1123.98 835.636,1125.88C831.593,1127.77 822.517,1131.41 815.415,1133.98C808.313,1136.55 800.757,1139.54 798.695,1140.59C793.842,1143.06 784.195,1146.72 769.839,1151.53C763.514,1153.65 749.783,1158.38 739.333,1162.04C728.883,1165.7 719.005,1169.1 717.355,1169.59C715.705,1170.08 713.392,1170.91 712.292,1171.41C708.859,1172.95 690.585,1178.52 689.008,1178.5C688.183,1178.49 681.693,1179.92 674.674,1181.69L661.973,1185.39L651.243,1184.12C637.327,1182.55 636.143,1181.95 633.671,1181.06C623.716,1177.48 613.781,1169.8 609.68,1162.49C604.272,1152.84 601.511,1144.61 601.436,1137.82C601.397,1134.34 600.938,1130.4 600.465,1129.3C599.849,1127.87 598.572,1141.33 598.574,1155.76C598.576,1170.19 598.895,1185.89 599.511,1189.13C601.893,1201.69 608.932,1211.39 619.256,1216.37C626.2,1219.72 626.224,1219.73 636.474,1220.26Z" fill="#E92D2B"/>
<path d="M657.994,1185.3C661.704,1185.49 667.535,1184.58 675.464,1182.53C681.953,1180.86 687.888,1179.51 688.813,1179.52C690.535,1179.54 709.104,1173.95 712.708,1172.33C713.808,1171.84 715.995,1171.05 717.645,1170.56C719.295,1170.07 729.217,1166.66 739.667,1163C750.117,1159.33 763.836,1154.61 770.161,1152.49C784.516,1147.68 794.302,1143.96 799.155,1141.49C801.217,1140.44 808.657,1137.5 815.759,1134.93C822.861,1132.36 832.023,1128.69 836.066,1126.8C840.109,1124.9 845.703,1122.46 848.535,1121.35C851.367,1120.24 854.679,1118.7 855.784,1117.99C856.89,1117.28 862.806,1114.86 869.053,1112.56C875.3,1110.27 882.996,1107.1 886.094,1105.55C889.191,1104.01 893.925,1101.94 896.675,1100.93C899.425,1099.92 904.437,1097.63 907.737,1095.88C911.037,1094.13 916.166,1091.71 919.191,1090.47C928.679,1086.6 931.523,1085.35 938.73,1081.85C942.584,1079.98 945.894,1078.51 946.354,1078.51C946.815,1078.51 948.677,1077.57 950.137,1076.54C952.466,1074.9 960.988,1070.29 982.735,1058.89C986.035,1057.16 994.189,1051.96 1000.79,1047.37C1007.39,1042.79 1014.14,1038.11 1015.79,1036.96C1017.44,1035.82 1019.72,1034.11 1020.82,1033.19C1026.72,1028.25 1031.27,1024.66 1034.35,1022.53C1036.47,1021.06 1040.36,1016.97 1043.52,1013.19C1046.68,1009.41 1049.25,1005.25 1048.87,1004.64C1048.01,1003.24 1044.67,1003.43 1040.28,1005.54C1038.08,1006.61 1036.11,1007.44 1035.67,1007.46C1035.22,1007.48 1032.33,1008.62 1029.48,1009.94C1026.62,1011.27 1020.93,1013.79 1016.8,1015.55C1012.68,1017.31 1006.5,1020.03 1003.1,1021.59C986.671,1029.1 985.11,1029.16 976.594,1021.25C972.559,1017.51 972.055,1010.23 975.405,1004.81C978.494,999.809 978.672,999.818 1060.7,965.214C1071.25,960.762 1078.07,956.567 1078.06,954.995C1078.05,953.795 1081.09,946.941 1085.98,936.946C1090.03,928.673 1091.42,923.536 1089.61,922.134C1087.8,920.731 1082.13,922.379 1072.79,926.553C1049.33,937.039 1046.29,937.628 1039.83,931.169C1035.7,927.035 1035.51,926.663 1035.51,921.931C1035.51,912.393 1040.29,908.404 1059.17,901.444C1072.56,896.513 1074.08,895.261 1074.75,890.221C1075.03,888.15 1076.39,884.112 1077.84,881.064C1079.28,878.017 1080.51,875.003 1080.51,874.632C1080.51,874.261 1082.27,870.282 1084.49,865.53C1088.81,856.268 1092.51,845.782 1092.51,842.894C1092.51,841.917 1092.75,841.251 1093.33,840.888C1093.92,840.525 1094.38,839.025 1094.1,838.303C1093.83,837.581 1094.45,835.692 1095.51,833.604C1096.58,831.516 1097.51,828.954 1097.51,828.193C1097.51,827.432 1098.19,825.623 1099.09,823.888C1100,822.153 1101.15,819.902 1101.66,818.893C1102.3,817.613 1102.05,815.88 1100.93,814.367C1094.91,806.177 1094.51,805.493 1094.51,801.917C1094.51,797.016 1095.72,793.96 1099.41,789.486C1101.05,787.495 1102.51,784.763 1102.51,783.807C1102.51,780.086 1109.29,762.506 1110.79,762.506C1111.19,762.506 1112.59,760.25 1113.31,757.926C1114.04,755.603 1116.85,749.031 1119.59,743.242C1122.33,737.453 1125.17,731.353 1125.89,729.703C1127.99,724.918 1134.33,711.601 1139.94,700.207C1142.79,694.423 1146.55,685.59 1148.26,680.649C1149.98,675.708 1153,667.405 1154.99,662.18C1160.8,646.895 1173.63,609.968 1174.64,605.615C1175.16,603.415 1176.42,599.338 1177.48,596.481C1178.54,593.623 1180.1,588.296 1180.93,584.716C1181.76,581.137 1183.34,575.669 1184.45,572.499C1187.11,564.949 1186.99,560.214 1184.02,553.669C1183.35,552.19 1182.7,550.937 1182.25,550.198C1181.79,549.458 1180.57,549.421 1180.55,549.778C1180.53,550.192 1180.89,549.825 1180.28,549.592C1179.68,549.359 1178.92,548.881 1177.81,548.034C1169.99,542.07 1154.87,543.581 1129.16,553.169C1119.35,556.828 1107.94,561.051 1103.79,562.556C1099.64,564.06 1093.33,566.444 1089.78,567.847C1086.22,569.251 1076.14,572.857 1067.34,575.87C1058.54,578.884 1039.41,585.497 1024.83,590.566C1010.26,595.634 963.239,611.6 920.339,626.048C877.439,640.495 839.632,653.267 836.332,654.428C833.032,655.588 816.834,661.215 800.334,666.934C783.834,672.653 765.812,679.141 760.312,681.341C754.812,683.54 743.57,687.914 735.32,691.064C708.489,701.306 696.014,708.491 682.352,721.539C660.176,742.718 655.468,756.135 646.566,824.435C644.917,837.085 642.873,851.923 642.021,857.423C641.17,862.923 639.822,873.294 639.03,880.444C637.592,893.414 634.96,914.156 631.989,935.932C630.531,946.617 629.858,952.062 625.989,984.44C625.201,991.04 623.855,1002.06 622.998,1008.94C620.593,1028.23 618.605,1044.61 617.534,1053.94C614.794,1077.82 614.225,1081.73 612.77,1086.35C610.549,1093.4 604.733,1105.76 602.429,1108.3C600.675,1110.23 600.354,1112.36 600.328,1127.22C600.297,1145.21 601.375,1149.74 608.797,1162.98C613.594,1171.54 628.007,1181.64 637.425,1183.06C643.913,1184.03 653.205,1185.04 657.994,1185.3ZM660.24,1158.23C655.172,1158.59 655.137,1158.51 650.643,1154.02L645.784,1149.84L646.799,1143.17C647.079,1139.5 647.981,1132.53 648.812,1127.58C649.644,1122.63 651.706,1109.8 653.394,1099.08C658.966,1063.68 659.934,1059.82 665.453,1056.46C671.599,1052.71 678.965,1054.68 683.309,1061.18C686.59,1066.09 686.194,1073.34 681.541,1101.42C681.086,1104.17 679.982,1111.32 679.09,1117.3C678.199,1123.27 677.365,1128.26 677.153,1128.61C676.942,1128.95 676.188,1133.65 675.564,1138.81C674.377,1148.59 672.872,1152.78 669.302,1155.77C666.808,1157.85 667.025,1157.76 660.24,1158.23ZM719.124,1140.24C712.423,1140.7 709.987,1139.24 707.277,1133.11C704.829,1127.57 705.334,1124.08 709.324,1118.57C712.338,1114.41 714.342,1113.45 734.179,1105.93C739.404,1103.95 748.42,1100.36 754.195,1097.95C759.97,1095.54 784.487,1085.72 808.687,1076.12C832.887,1066.52 864.162,1054.1 878.187,1048.51C906.961,1037.06 911.297,1035.91 916.621,1039.57C926.865,1046.62 927.063,1056.39 917.072,1063.12C915.368,1064.27 903.55,1069.32 890.692,1074.41C877.834,1079.5 865.948,1084.26 864.298,1084.98C853.436,1089.7 796.168,1112.33 755.318,1128.04C752.018,1129.31 744.015,1132.42 737.535,1134.94C723.568,1140.38 725.686,1139.78 719.124,1140.24ZM735.197,1070.3C724.274,1070.92 718.296,1061.68 723.08,1051.6C725.332,1046.85 727.606,1045.58 744.186,1039.02C752.161,1035.86 763.186,1031.5 768.686,1029.32C774.186,1027.15 780.13,1024.71 781.863,1023.91C788.655,1020.78 794.807,1023.46 798.591,1028.4C802.374,1033.34 803.214,1039.72 798.078,1045.01C796.12,1047.02 793.022,1049.27 790.992,1050.13C758.194,1064.15 742.355,1069.89 735.197,1070.3ZM868.538,1012.65C857.807,1011.99 852.965,998.432 860.403,989.961C864.015,985.847 863.388,986.172 917.683,965.103C925.383,962.116 937.085,957.546 943.685,954.95C950.285,952.354 957.465,950.033 959.794,949.754C967.761,948.798 972.723,953.19 974.475,959.203C976.227,965.216 974.456,971.91 967.4,975.997C963.288,978.378 949.228,984.041 914.319,997.389C909.919,999.072 899.422,1003.17 890.998,1006.49C874.494,1013 874.511,1013.02 868.538,1012.65ZM670.97,989.266C659.631,989.95 655.653,981.559 658.56,964.083C659.064,961.058 660.154,953.847 660.981,948.072C661.808,942.297 663.138,933.073 663.936,927.573C666.897,907.181 668.536,895.063 670.97,875.563C672.343,864.563 673.91,852.651 674.456,849.076C675.001,845.501 675.702,840.306 676.011,837.556C676.32,834.806 677,830.112 677.528,827.087C678.056,824.062 679.422,815.73 680.561,808.58C686.411,771.857 691.178,759.637 705.45,745.106C712.078,738.357 714.323,736.796 723.816,732.312C733.628,727.677 770.928,713.601 804.167,701.987C811.042,699.585 824.544,694.836 834.169,691.435C883.481,674.007 913.75,663.562 921.414,661.33C934.532,657.509 944.494,662.938 944.494,674.072C944.494,683.236 940.938,686.313 924.836,691.839C920.711,693.254 903.601,699.438 886.826,705.575C870.051,711.713 854.546,717.303 852.346,718.005C850.146,718.707 839.328,722.536 828.328,726.505C817.328,730.475 800.904,736.392 791.829,739.653C782.754,742.914 771.944,746.883 767.819,748.468C763.694,750.053 759.238,751.652 757.863,752.041C752.733,753.489 737.635,761.895 733.277,765.731C721.566,776.039 716.053,788.755 711.626,815.919C707.326,842.299 698.074,900.755 694.927,921.424C694.09,926.924 692.78,935.013 692.015,939.413C691.25,943.813 690.332,949.686 689.979,952.436C688.151,966.685 684.581,981.026 681.961,984.462C679.017,988.322 677.717,988.859 670.97,989.266ZM830.062,962.953C821.868,962.886 816.893,956.751 817.749,947.85C818.532,939.694 820.738,938.253 842.685,929.623C849.835,926.812 864.46,921.065 875.185,916.853C902.326,906.192 907.776,905.917 913.355,916.344C917.783,924.619 915.259,930.493 905.272,935.526C889.868,943.289 835.839,963.001 830.062,962.953ZM1056.53,867.788C1047.7,867.334 1043.34,856.842 1048.44,848.488C1051.7,843.132 1057.19,842.41 1062.26,844.396C1067.33,846.382 1071.06,850.745 1070.21,857.049C1069.16,864.874 1064.88,868.219 1056.53,867.788ZM1057.5,800.294C1052.48,800.569 1052.12,800.449 1048.63,797.254C1044.95,793.88 1045.01,793.967 1045.03,787.33C1045.06,778.067 1053.4,741.246 1057.12,733.935C1061.9,724.551 1075.8,725.341 1080.81,735.248C1082.79,739.16 1082.51,742.451 1079.45,754.879C1078.44,759.004 1076.17,768.458 1074.41,775.883C1069.5,796.637 1067.52,799.745 1057.5,800.294Z" fill="#FE453D"/>
<path d="M660.581,1159C670.827,1158.99 674.713,1154.24 676.581,1138.82C677.198,1133.73 677.806,1129.48 678.017,1129.13C678.229,1128.79 679.2,1123.42 680.091,1117.44C680.983,1111.47 682.084,1104.33 682.54,1101.58C687.193,1073.5 687.431,1065.53 684.151,1060.62C679.806,1054.11 671.072,1051.85 664.926,1055.59C659.407,1058.96 657.967,1063.52 652.394,1098.92C650.706,1109.65 648.646,1122.47 647.814,1127.42C646.983,1132.37 646.072,1139.44 645.79,1143.13L645.779,1149.92L649.714,1154.21C653.931,1158.28 654.962,1159.01 660.581,1159Z" fill="#491717"/>
<path d="M512.341,1146.8C513.893,1146.74 515.808,1146.24 516.181,1145.86C517.457,1144.58 516.391,1125.6 514.765,1121.41C513.551,1118.29 513.033,1111.56 512.47,1092.49C512.063,1078.74 510.583,1053.73 509.182,1036.96C507.781,1020.18 505.91,996.115 505.023,983.465C503.393,960.198 502.584,948.621 502.2,945.348C501.815,942.076 500.843,947.146 500.897,957.003C500.984,972.623 500.789,974.98 498.841,980.39C497.64,983.723 495.955,990.33 495.122,994.972C494.29,999.613 492.71,1008.36 491.611,1014.41C490.512,1020.46 489.319,1028.38 488.965,1031.95C488.612,1035.53 487.712,1042.01 486.959,1046.41C486.206,1050.81 485.585,1056.08 485.588,1058C485.596,1062.97 483.106,1075.72 481.916,1076.46C481.367,1076.8 480.369,1079.1 479.981,1081.17C479.351,1084.53 479.457,1085.62 478.794,1085.14C478.131,1084.66 477.7,1082.63 477.176,1078.44C476.747,1075 475.585,1076.75 475.659,1080.88C475.733,1085.02 476.036,1091.64 476.518,1098.04C478.127,1119.37 481.185,1128.55 489.294,1136.76C496.222,1143.78 503.897,1147.11 512.341,1146.8Z" fill="#E92D2B"/>
<path d="M719.462,1140.94C724.226,1140.88 728.229,1139.82 737.687,1136.06C744.287,1133.44 752.382,1130.26 755.682,1128.99C796.531,1113.27 853.84,1090.63 864.702,1085.9C866.352,1085.19 878.206,1080.44 891.064,1075.35C903.922,1070.26 915.933,1065.11 917.637,1063.96C927.628,1057.23 927.438,1045.79 917.195,1038.74C911.87,1035.07 906.586,1036.12 877.813,1047.57C863.788,1053.16 832.513,1065.58 808.313,1075.18C784.113,1084.78 759.58,1094.61 753.805,1097.01C748.03,1099.42 739.046,1103.01 733.821,1104.99C713.983,1112.5 711.518,1113.82 708.505,1117.98C704.497,1123.51 703.902,1127.98 706.386,1133.59C708.934,1139.36 711.85,1141.02 719.462,1140.94Z" fill="#491717"/>
<path d="M602.823,1109.11C604.52,1108.15 611.385,1094.1 613.734,1086.65C615.19,1082.04 615.799,1077.94 618.539,1054.06C619.61,1044.72 621.597,1028.35 624.002,1009.06C624.859,1002.19 626.206,991.16 626.994,984.56C630.862,952.182 631.534,946.754 632.992,936.068C635.963,914.293 638.598,893.525 640.035,880.556C640.828,873.406 642.17,863.077 643.022,857.577C643.873,852.077 645.92,837.215 647.569,824.565C656.471,756.266 660.875,743.45 683.051,722.271C696.713,709.223 708.85,702.251 735.68,692.009C743.93,688.86 755.188,684.48 760.688,682.28C766.188,680.08 784.166,673.61 800.666,667.891C817.166,662.171 833.368,656.542 836.668,655.382C839.968,654.222 877.761,641.454 920.661,627.007C963.561,612.559 1010.59,596.59 1025.17,591.521C1039.74,586.453 1058.86,579.841 1067.66,576.828C1076.46,573.814 1086.59,570.192 1090.15,568.789C1093.7,567.385 1099.99,565.008 1104.14,563.5C1108.28,561.993 1117.98,558.391 1125.68,555.5C1159.67,542.736 1167.52,541.438 1176.05,547.948C1178.84,550.08 1181.12,550.725 1181.3,550.384C1181.48,550.043 1180.21,547.947 1177.6,545.455C1173.11,541.16 1170.35,539.655 1163.68,537.879C1148.58,533.859 1137.55,536.741 1052.26,567.603C1047.82,569.21 1043.69,570.494 1042.88,570.494C1042.06,570.494 1040.63,571.016 1040.11,571.493C1039.59,571.97 1037.31,572.948 1034.84,573.794C1032.36,574.64 1025.15,577.224 1018.83,579.532C1000.17,586.339 970.644,596.641 966.868,597.661C964.943,598.18 962.386,599.057 961.286,599.571C959.111,600.588 849.454,639.239 838.842,642.73C835.267,643.906 830.961,645.422 829.311,646.085C827.661,646.748 823.876,648.038 820.851,648.968C817.826,649.898 814.387,651.101 813.287,651.611C812.187,652.121 798.287,656.966 782.337,662.403C766.387,667.839 750.168,673.51 746.318,674.997C742.468,676.483 737.744,678.3 735.819,679.036C700.049,692.694 683.668,701.633 669.775,715.027C652.914,731.284 643.858,749.55 640.093,774.926C639.236,780.701 638.056,788.574 637.47,792.424C636.371,799.65 634.091,816.804 632.484,829.939C631.979,834.064 631.1,840.345 630.528,843.92C629.441,850.708 628.391,858.985 625.959,879.942C625.161,886.817 623.861,897.384 623.068,903.434C619.73,928.902 618.386,940.065 617.405,950.452C616.834,956.502 615.927,963.651 615.38,966.401C614.833,969.151 613.963,976.408 613.456,982.458C612.949,988.508 612.074,996.806 611.508,1000.93C610.943,1005.06 609.799,1014.06 608.969,1020.94C608.138,1027.81 606.802,1038.84 606.001,1045.44C603.755,1063.93 602.202,1080.07 601.497,1091.4C600.793,1102.73 601.687,1109.75 602.823,1109.11Z" fill="#FFFDFD"/>
<path d="M430.772,1089.32C436.322,1089.84 437.839,1087.66 437.086,1078.99C436.186,1068.63 434.894,1065.56 430.225,1062.11C422.347,1056.28 417.797,1043.87 414.021,1018.43C413.124,1012.38 411.692,1003.14 410.841,997.919C409.99,992.694 408.954,984.366 408.539,979.416L407.285,970.5L406.522,977C406.212,984.86 405.961,987.04 404.57,994.012C400.542,1014.2 396.488,1042.32 396.449,1050.32C396.428,1054.62 396.407,1056.75 396.219,1057.57C396.03,1058.39 396.639,1057.69 395.996,1056.29C395.618,1055.46 395.171,1054.74 394.909,1054.47C394.647,1054.2 393.605,1054.56 393.586,1054.98C393.472,1057.36 398.189,1066.91 402.769,1073.44C408.942,1082.24 419.548,1088.25 430.772,1089.32Z" fill="#E92D2B"/>
<path d="M478.915,1085.78C479.441,1085.67 480.58,1083.47 480.97,1081.39C481.361,1079.3 481.899,1077.66 482.448,1077.32C483.638,1076.58 486.608,1062.97 486.6,1058C486.597,1056.07 487.203,1050.99 487.956,1046.59C488.709,1042.19 489.619,1035.62 489.972,1032.05C490.326,1028.47 491.508,1020.64 492.607,1014.59C493.706,1008.54 495.286,999.792 496.118,995.15C496.951,990.509 498.592,984.066 499.793,980.733C502.446,973.367 502.551,946.398 500.018,911.963C497.884,882.959 497.711,880.448 496.544,861.469C495.969,852.119 494.998,837.936 494.385,829.961C493.773,821.986 493.046,809.967 492.769,803.229C492.554,798.008 492.36,794.879 492.054,793.121C491.748,791.362 490.827,790.489 490.132,790.485C487.54,790.47 479.208,785.208 475.035,781.01C471.127,777.078 464.506,767.134 464.506,765.119C464.506,764.504 463.55,763.494 463,763.494C462.058,763.494 461.587,781.173 462.107,798.794C462.626,816.415 463.691,834.723 464.687,836.573C465.244,837.605 466.01,855.718 466.52,878.344C467.019,900.436 468.333,937.2 469.44,960.025C470.547,982.85 471.943,1011.77 472.541,1024.28C473.643,1047.32 474.559,1062.72 475.461,1072.27C476.363,1081.83 477.865,1086.01 478.915,1085.78Z" fill="#FE453D"/>
<path d="M734.172,1071.31C740.276,1071.7 756.317,1066.05 791.39,1051.06C793.42,1050.2 796.846,1047.73 798.804,1045.71C803.94,1040.42 803.177,1032.72 799.394,1027.79C795.611,1022.85 788.232,1019.86 781.44,1022.99C779.706,1023.79 773.814,1026.21 768.314,1028.38C723.494,1046.1 724.822,1045.57 722.166,1051.16C717.613,1060.76 723.491,1070.62 734.172,1071.31Z" fill="#491717"/>
<path d="M547.904,1066.05C550.075,1064.82 554.205,1055.39 556.467,1046.23C559.239,1035.01 561.425,1026.9 562.145,1025.2C562.495,1024.37 562.732,1022.89 562.631,1022.25C562.53,1021.6 562.675,1021.3 563.239,1020.95C563.804,1020.6 564.506,1018.65 564.506,1017.14C564.506,1015.63 564.873,1014.24 565.502,1013.61C567.087,1012.03 567.037,998.488 565.152,979.882C562.07,949.476 561.427,941.671 560.483,923.204C559.956,912.902 559.08,900.173 558.539,894.948C555.517,865.767 554.536,855.673 554.023,848.464C552.565,827.988 552.384,828.105 549.008,826.611C544.366,824.556 534.151,814.003 530.489,807.502C528.708,804.339 526.594,801.273 526.007,800.909C525.313,800.48 524.485,809.472 524.862,820.809C525.239,832.147 526.05,846.308 527.087,857.049C528.743,874.204 529.722,886.11 532.101,918.038C532.982,929.863 534.166,940.613 534.676,941.713C535.186,942.813 535.98,951.178 536.497,960.528C537.014,969.878 537.866,981.381 538.388,986.056C538.911,990.731 539.371,999.499 539.414,1005.6C539.458,1011.71 539.981,1018.19 540.542,1019.79C541.103,1021.4 541.954,1029.77 542.465,1038.56C543.068,1048.91 543.704,1056.05 544.454,1060.38C545.204,1064.71 546.821,1066.66 547.904,1066.05Z" fill="#FE453D"/>
<path d="M397.598,1047.03C398.185,1036.69 402.059,1011.31 405.903,992.602C407.675,983.977 407.365,966.301 405.122,948.935C404.234,942.06 402.826,931.037 401.994,924.437C401.162,917.837 400.021,908.836 399.459,904.436C398.897,900.036 397.535,889.237 396.432,880.437C395.33,871.637 392.453,850.031 390.041,832.431C387.629,814.831 384.694,792.117 383.517,781.942C380.447,755.401 376.309,724.268 376.007,724.098C375.865,724.018 373.731,723.071 371.321,722.022C364.35,718.987 356.305,710.133 351.302,700.044C348.91,695.221 346.554,690.886 346.224,690.611C345.894,690.336 345.516,689.645 345.202,688.82C344.616,687.28 343.468,690.878 343.616,695.886C343.765,700.894 344.236,707.563 344.921,712.442C345.704,718.013 347.076,728.19 347.972,735.065C348.868,741.94 350.465,753.646 351.519,761.071C352.574,768.496 354.61,783.565 356.045,794.565C357.48,805.565 359.084,817.718 359.61,821.568C360.136,825.418 361.186,833.513 361.945,839.563C363.928,855.375 368.167,886.372 370.493,902.074C371.592,909.499 373.181,920.964 374.026,927.564C374.87,934.164 376.43,945.424 377.492,952.574C378.553,959.724 380.579,974.118 381.995,984.568C385.639,1011.46 388.118,1028.85 389.895,1039.5C391.671,1050.16 393.246,1054.51 394.088,1054.51C394.527,1054.51 394.758,1055.18 395.185,1056.42C395.437,1057.14 396.666,1056.61 396.908,1055.05C397.149,1053.48 397.386,1050.76 397.598,1047.03Z" fill="#FE453D"/>
<path d="M543.235,1039.54C543.415,1037.34 543.124,1032.06 542.591,1027.94C542.166,1024.64 540.937,1023.14 540.891,1023.71C540.846,1024.27 540.975,1026.98 541.257,1032.03C541.433,1035.19 541.633,1037.65 541.809,1039.01C541.984,1040.37 543.145,1040.64 543.235,1039.54Z" fill="#E92D2B"/>
<path d="M985.706,1028.33C987.438,1028.77 995.406,1026.22 1003.37,1022.58C1006.86,1020.99 1013.07,1018.24 1017.2,1016.48C1021.32,1014.72 1027.05,1012.18 1029.9,1010.86C1032.75,1009.54 1035.16,1008.51 1035.5,1008.51C1035.85,1008.51 1038.9,1007.27 1042.03,1005.82C1045.15,1004.38 1054.59,1000.36 1063.02,996.883C1089.72,985.875 1094.39,982.294 1095.25,973.288C1096.5,960.324 1083.47,953.532 1069.78,960.136C1066.83,961.562 1056.98,965.776 1047.87,969.516C1038.76,973.256 1028.59,977.541 1025.29,979.031C1021.99,980.52 1011.91,984.856 1002.87,988.672C975.268,1000.32 972.494,1002.76 972.494,1013.17C972.494,1018.01 973.012,1019.32 975.902,1022.06C979.13,1025.11 983.158,1027.68 985.706,1028.33Z" fill="#491717"/>
<path d="M718.624,1014.22C725.014,1015.02 730.115,1010.17 731.655,1004.62C733.194,999.077 731.498,991.902 725.843,988.454C716.683,982.868 702.996,992.246 704.967,1002.76C705.653,1006.41 711.482,1013.37 714.044,1013.66C714.813,1013.75 716.871,1014 718.624,1014.22Z" fill="#491717"/>
<path d="M872.576,1013.76C874.254,1013.68 882.739,1010.84 891.237,1007.48C899.734,1004.13 910.281,1000.02 914.681,998.335C949.589,984.986 963.795,979.254 967.908,976.872C974.963,972.785 977.199,964.932 975.447,958.919C973.695,952.906 967.641,947.793 959.673,948.749C957.345,949.028 949.915,951.412 943.315,954.008C936.715,956.604 925.017,961.172 917.317,964.16C892.324,973.858 872.394,981.671 868.315,983.371C855.86,988.558 852.25,1000.49 860.345,1009.45C863.832,1013.31 865.961,1014.08 872.576,1013.76Z" fill="#491717"/>
<path d="M540.228,1001.54C540.402,999.34 540.116,993.175 539.593,987.95C539.16,983.624 537.929,981.56 537.886,982.105C537.842,982.65 537.979,985.876 538.268,992.024C538.442,995.736 538.638,998.688 538.81,1000.41C538.983,1002.13 540.141,1002.64 540.228,1001.54Z" fill="#E92D2B"/>
<path d="M672.279,989.991C682.64,989.965 685.559,985.118 690.01,958.082C690.87,952.857 692.208,944.758 692.982,940.083C693.757,935.408 695.08,927.076 695.921,921.576C699.292,899.532 708.449,841.702 712.625,816.081C717.052,788.918 722.235,776.799 733.946,766.491C738.303,762.655 753.008,754.463 758.137,753.015C759.512,752.626 764.056,750.997 768.181,749.413C772.306,747.828 783.096,743.867 792.171,740.605C801.246,737.344 817.672,731.427 828.672,727.457C839.672,723.487 850.454,719.671 852.654,718.969C854.854,718.267 870.399,712.664 887.174,706.526C903.949,700.388 921.039,694.212 925.164,692.796C941.266,687.271 945.506,683.236 945.506,674.072C945.506,662.938 934.249,656.537 921.131,660.358C913.467,662.59 883.144,673.053 833.831,690.48C824.206,693.882 810.708,698.63 803.833,701.032C770.594,712.646 733.196,726.762 723.384,731.397C713.891,735.88 711.356,737.648 704.728,744.397C690.456,758.928 685.412,771.698 679.561,808.42C678.422,815.57 677.06,823.888 676.532,826.913C676.004,829.938 675.314,834.694 675.006,837.444C674.697,840.194 674,845.349 673.455,848.924C672.91,852.499 671.339,864.437 669.966,875.437C667.531,894.938 665.896,907.035 662.935,927.427C662.136,932.927 660.806,942.153 659.979,947.928C659.152,953.703 658.065,960.892 657.562,963.917C654.525,982.169 659.079,990.024 672.279,989.991Z" fill="#FFFDFD"/>
<path d="M565.674,988.006C565.813,988.006 566.295,985.73 566.147,982.92C565.999,980.111 565.725,976.22 565.362,971.957C564.999,967.695 564.624,964.132 564.316,961.866C564.008,959.601 562.761,958.611 562.656,959.436C562.437,961.171 562.876,968.28 563.466,974.847C564.056,981.413 565.299,988.006 565.674,988.006Z" fill="#E92D2B"/>
<path d="M537.218,961.046C537.393,959.121 537.107,953.84 536.583,949.44C536.153,945.835 534.925,944.133 534.881,944.614C534.837,945.095 534.97,947.846 535.256,953.028C535.43,956.19 535.627,958.704 535.799,960.154C535.972,961.604 537.13,962.009 537.218,961.046Z" fill="#E92D2B"/>
<path d="M830.101,964.226C834.283,964.668 891.123,943.79 905.728,936.429C915.714,931.397 918.675,924.141 914.248,915.867C908.669,905.439 901.956,905.25 874.815,915.911C864.09,920.123 849.465,925.87 842.315,928.681C826.314,934.973 822.767,936.777 819.798,939.959C817.302,942.634 815.853,949.373 816.9,953.544C817.605,956.352 823.475,963.404 825.28,963.669C825.911,963.761 828.091,964.013 830.101,964.226Z" fill="#491717"/>
<path d="M563.236,954.689C563.456,954.139 563.144,946.488 562.5,937.963C561.928,930.382 561.424,925.24 561.068,923.054C560.712,920.867 559.494,921.673 559.494,925.738C559.494,928.741 560.071,936.272 560.705,942.857C561.338,949.442 563.003,955.271 563.236,954.689Z" fill="#E92D2B"/>
<path d="M434.358,939.05C434.713,935.475 434.707,925.503 434.341,916.978C433.976,908.453 433.589,897.663 433.482,892.988C433.375,888.313 432.908,877.049 432.446,867.974C431.984,858.899 431.362,844.283 431.063,835.483C429.62,792.994 428.148,761.164 427.591,759.652C427.049,758.181 425.967,757.918 424.26,759.169C423.433,759.775 422.811,760.441 422.771,760.645C422.731,760.849 423.57,761.506 424.277,761.506C425.369,761.506 425.26,761.352 424.867,762.376C424.529,763.258 424.274,763.393 423.427,763.068C422.535,762.726 420.222,763.832 418.509,765.624C417.718,766.452 417.051,767.071 416.526,767.482C416.001,767.893 416.489,768.429 416.483,768.225C416.477,768.022 415.344,767.974 415.029,768.472C414.713,768.971 414.348,769.676 413.875,770.636L412.517,774.482L412.383,771.491C412.082,770.088 411.66,768.937 411.544,768.872C411.427,768.807 410.607,769.779 410.496,770.952C410.408,771.877 411.189,771.95 410.936,771.556C410.682,771.162 410.343,770.106 409.836,768.257L408.022,763.5L407.967,770C408.458,777.076 413.586,822.592 415.975,841.065C418.215,858.38 420.516,876.609 421.593,885.56C425.353,916.828 429.272,940.328 430.709,941.405C431.076,941.68 431.551,942.581 431.971,943.681C432.24,944.385 433.435,944.374 433.663,943.645C433.892,942.916 434.13,941.338 434.358,939.05Z" fill="#E92D2B"/>
<path d="M1048.64,935.885C1051.42,935.816 1056.36,934.621 1059.73,933.198C1063.01,931.808 1072.9,927.654 1081.7,923.965C1090.5,920.276 1099.21,916.141 1100.92,914.852C1107.22,910.109 1107.27,898.721 1100.98,892.938C1095.35,887.769 1091.8,887.674 1078.7,892.856C1072.44,895.331 1062.47,899.175 1056.53,901.404C1039.43,907.825 1034.49,912.562 1034.49,921.969C1034.49,926.75 1034.97,927.802 1039,931.68C1042.97,935.501 1044.14,935.995 1048.64,935.885Z" fill="#491717"/>
<path d="M587.273,930.423C588.112,929.872 590.515,917.747 590.491,913.915C590.485,912.985 590.286,912.116 590.142,911.968C589.998,911.819 588.976,912.123 588.623,912.682C588.118,913.48 587.904,914.998 588.152,915.399C588.4,915.8 588.36,915.682 587.864,915.989C587.126,916.446 587.093,916.207 586.485,915.142C585.877,914.077 585.463,912.565 585.246,910.436C585.073,908.74 583.988,907.823 583.907,908.04C583.826,908.257 583.739,909.646 583.671,911.985C583.577,915.231 584.014,920.004 584.606,923.782C585.197,927.56 586.727,930.782 587.273,930.423Z" fill="#E92D2B"/>
<path d="M587.772,916.618C587.99,916.54 588.548,915.732 588.605,915.319C588.662,914.907 589.231,913.605 589.93,912.23C590.957,910.211 592.131,903.105 592.776,896.817C593.421,890.528 592.822,884.397 591.946,884.938C591.73,885.072 592.056,884.959 591.682,884.471C591.307,883.983 590.968,883.363 590.616,882.489C589.913,880.741 588.894,878.479 588.38,877.524C587.866,876.569 587.506,875.121 587.506,874.014C587.506,872.906 586.338,871.494 585.529,871.494C584.719,871.494 584.085,870.387 583.529,868.6C583.161,867.414 581.954,867.71 581.877,869.497C581.799,871.283 581.861,874.729 582.052,880.018C582.479,891.869 583.16,901.164 584.022,907.34C584.884,913.517 586.602,917.034 587.772,916.618Z" fill="#FE453D"/>
<path d="M531.217,893.557C531.404,891.907 531.123,886.396 530.592,881.446C530.129,877.129 528.889,874.997 528.844,875.387C528.8,875.778 528.944,878.77 529.244,884.526C529.416,887.826 529.612,890.516 529.787,892.148C529.962,893.779 531.123,894.382 531.217,893.557Z" fill="#E92D2B"/>
<path d="M592.579,885.344C593.01,885.033 594.44,876.711 595.506,867.283C596.572,857.855 597.687,849.174 597.999,847.913C598.31,846.653 598.97,841.271 599.45,836.046C599.93,830.821 601.451,818.47 602.835,808.57C604.218,798.67 605.645,787.911 606.015,784.611L606.193,778.5L602.618,781.5C600.93,783.15 599.537,785.279 599.522,786.242C599.507,787.204 599.57,787.494 599.045,787.494C596.57,787.494 589.965,796.479 591.082,798.287C591.415,798.825 591.638,798.494 591.051,798.494C590.464,798.494 588.787,800.629 587.898,802.85C586.915,805.307 585.393,807.21 583.644,808.115C582.062,808.933 580.451,810.561 580.396,811.235C580.369,811.571 581.151,811.329 580.974,811.098C580.796,810.867 580.641,810.52 580.4,809.832C580.131,809.067 578.98,809.95 578.921,811.944C578.862,813.939 578.911,817.231 579.075,821.519C579.846,841.633 580.538,854.298 581.436,861.895C582.333,869.491 583.942,872.506 585.547,872.506C586.346,872.506 586.494,872.906 586.494,874.014C586.494,875.121 586.955,877.041 587.449,877.996C587.944,878.951 588.944,881.058 589.687,882.708C590.059,883.533 590.566,884.345 590.952,884.786C591.339,885.227 592.364,885.5 592.579,885.344Z" fill="#F1A9A8"/>
<path d="M747.305,880.886C751.312,880.823 755.529,878.357 758.622,874.215C760.316,871.946 764.835,852.109 769.974,824.091C772.977,807.721 774.104,804.669 780.581,797.743L786.184,791.049L784.899,786.358C779.57,772.406 764.716,769.945 754.501,781.53C745.594,791.634 742.188,802.894 734.951,846.865C731.009,870.817 731.23,872.034 737.324,877.385C741.099,880.699 741.859,880.971 747.305,880.886Z" fill="#491717"/>
<path d="M467.281,868.518C467.435,864.118 467.14,855.061 466.626,848.461C466.24,843.512 465.025,841.41 464.984,842.586C464.942,843.761 465.065,848.269 465.334,856.517C465.514,862.017 465.71,866.139 465.88,868.314C466.049,870.489 467.203,870.718 467.281,868.518Z" fill="#E92D2B"/>
<path d="M497.269,870.027C497.431,867.002 497.137,861.062 496.62,856.937C496.239,853.898 495.027,852.676 494.983,853.494C494.939,854.312 495.056,857.258 495.317,862.525C495.502,866.24 495.698,868.939 495.866,870.278C496.034,871.617 497.184,871.599 497.269,870.027Z" fill="#E92D2B"/>
<path d="M1057.13,869.18C1061.33,870.276 1066.03,867.509 1068.6,863.635C1071.16,859.761 1072.17,854.058 1070.01,849.886C1066.8,843.684 1060.34,841.433 1055.25,842.75C1050.17,844.066 1045.5,849.181 1045.5,856.215C1045.49,861.275 1050.31,868.374 1053.82,868.621C1054.72,868.685 1056.16,868.928 1057.13,869.18Z" fill="#491717"/>
<path d="M550.515,828.327C551.144,828.469 552.106,827.72 552.231,826.285C552.355,824.85 552.258,822.206 551.998,817.803C550.785,797.256 548.559,762.068 547.295,743.466C543.509,687.728 546.594,667.588 561.992,648.92C573.516,634.949 583.189,630.521 650.16,608.146C726.257,582.721 732.568,580.245 741.118,572.864C749.13,565.948 757.076,551.589 759.918,538.86C760.294,537.174 759.829,535.698 758.735,535.594C757.641,535.491 755.259,536.172 751.335,537.522C748.138,538.622 744.979,539.494 744.113,539.494C743.248,539.494 739.745,541.13 736.654,543.038C733.562,544.946 726.912,547.842 721.742,549.535C716.572,551.228 711.388,553.051 710.288,553.559C706.769,555.186 680.205,564.494 679.068,564.494C678.466,564.494 676.953,564.971 675.998,565.482C675.043,565.993 671.197,567.374 667.347,568.596C663.497,569.818 656.951,572.057 652.826,573.564C648.701,575.071 643.938,576.594 642.156,576.972C640.375,577.35 638.336,578.303 638.022,578.811C637.708,579.319 636.874,579.494 635.641,579.494C634.408,579.494 632.623,580.042 632.101,580.541C631.578,581.04 629.783,581.789 627.858,582.353C624.134,583.443 601.007,591.569 596.811,593.262C595.436,593.817 587.363,596.611 578.838,599.483C570.313,602.355 561.876,605.356 560.143,606.131C558.409,606.905 556.923,607.494 556.588,607.494C554.308,607.494 537.153,619.506 533.087,623.986C524.858,633.053 524.796,633.158 521.042,644.339C518.64,651.496 518.271,654.435 517.769,670.985C517.216,689.232 518.574,732.723 520.52,759.037C521.068,766.462 521.936,778.801 522.448,786.461C523.177,797.378 523.975,800.986 525.202,801.673C526.063,802.155 527.428,804.032 528.484,806.103C532.791,814.545 545.326,827.156 550.515,828.327Z" fill="#FFFDFD"/>
<path d="M768.986,828.034C769.257,828.305 774.654,827 780.337,824.988C786.02,822.975 794.032,820.228 798.157,818.879C815.88,813.08 822.361,803.499 816.277,792.674C812.22,785.455 802.23,784.457 793.173,787.957C784.116,791.456 775.064,799.564 772.242,809.442C770.065,817.061 768.352,827.401 768.986,828.034Z" fill="#FFFDFD"/>
<path d="M1107.92,816.305C1116.64,816.836 1124.64,806.789 1122.6,797.829C1120.55,788.806 1112.96,784.713 1106.44,785.588C1099.93,786.464 1093.49,792.421 1093.5,801.718C1093.51,809.371 1099.86,815.815 1107.92,816.305Z" fill="#491717"/>
<path d="M579.559,811.095C579.775,809.975 579.883,809.481 580.02,809.268C580.157,809.056 579.322,809.089 579.365,809.809L580,812L582.506,810C583.606,808.9 584.475,808.506 585.056,808.506C585.637,808.506 587.471,806.18 588.566,803.705C589.661,801.23 590.549,799.506 591.106,799.506C591.663,799.506 592.276,798.293 591.943,797.755C590.826,795.947 596.57,788.506 599.045,788.506C599.57,788.506 600.506,787.122 600.506,786.05C600.506,784.977 600.836,784.164 601.523,783.723C605.534,781.149 607.424,777.247 608.904,768.081C616.523,720.907 639.925,690.563 686.727,667.135C701.915,659.532 724.825,650.53 762.667,637.292C772.017,634.022 783.493,629.996 788.168,628.346C800.135,624.124 850.86,606.99 861.655,603.523C877.296,598.5 877.134,598.565 882.761,590.937C889.565,581.715 901.156,562.41 902.029,558.871C902.503,556.951 901.547,555.407 899.581,555.531C897.615,555.655 893.962,556.856 888.306,559.103C853.898,572.773 841.341,575.302 833.509,569.629C826.664,564.67 824.506,560.652 824.506,552.805C824.506,542.577 827.185,536.513 835.228,528.472C845.542,518.16 856.03,512.901 897.18,497.281C915.515,490.321 919.024,489.058 945.165,480.017C952.59,477.449 959.601,474.944 960.701,474.468C962.65,473.623 967.69,471.947 1010.16,458.001C1035.27,449.755 1045.97,448.503 1058.86,452.417C1063.31,453.77 1066.4,454.141 1067.28,453.653C1068.15,453.165 1067.26,450.937 1064.42,448.683C1052.7,439.404 1031.61,436.871 1007.48,441.929C997.172,444.089 977.137,449.834 963.834,454.442C962.459,454.919 954.142,457.678 945.342,460.577C936.542,463.476 927.958,466.416 926.308,467.094C924.658,467.772 920.656,469.111 917.356,470.09C914.056,471.068 902.893,474.72 892.571,478.198C882.249,481.675 873.479,484.494 872.884,484.494C872.289,484.494 870.178,485.171 868.445,485.945C866.712,486.719 861.495,488.799 856.82,490.581C852.145,492.362 846.951,494.403 845.301,495.107C843.651,495.81 840.507,497.126 838.307,498.032C813.485,508.26 798.916,523.095 791.623,545.532C780.684,579.184 769.452,593.784 744.843,606.238C740.158,608.609 735.843,610.494 734.976,610.494C734.109,610.494 732.627,611.031 732.104,611.519C731.582,612.008 728.197,613.298 724.347,614.524C720.497,615.749 715.956,617.328 714.306,618.013C712.656,618.699 706.622,620.739 700.847,622.565C695.072,624.392 673.639,631.43 653.226,638.204C632.812,644.978 615.715,650.494 615.036,650.494C613.773,650.494 612.275,651.066 600.508,656.394C592.433,660.05 584.608,667.139 581.489,673.599C580.246,676.173 578.83,679.093 578.341,680.09C576.049,684.757 575.602,704.691 576.72,758.511C577.04,773.911 577.407,787.524 577.74,797.04C578.073,806.555 579.374,812.058 579.559,811.095Z" fill="#FFFDFD"/>
<path d="M1057.1,801.299C1066.92,801.826 1070.37,797.349 1075.4,776.117C1077.15,768.692 1079.42,759.246 1080.44,755.121C1083.49,742.692 1083.69,738.703 1081.71,734.791C1076.7,724.884 1061,724.092 1056.22,733.476C1052.49,740.813 1044.05,778.065 1044.02,787.377C1043.99,796.396 1048.15,800.82 1057.1,801.299Z" fill="#491717"/>
<path d="M851.791,799.918C861.897,799.763 869.444,793.313 870.197,784.25C871.171,772.524 857.649,763.19 846.668,768.02C837.708,771.962 833.858,780.31 834.936,787.094C836.013,793.877 842.228,800.065 851.791,799.918Z" fill="#FFFDFD"/>
<path d="M490.113,791.335C491.022,791.484 492.054,791.199 492.264,790.78C492.474,790.361 492.443,789.227 492.2,787.753C491.896,785.919 491.171,776.818 490.581,767.468C485.239,682.779 485.325,652.124 491.065,638.322C493.439,632.614 492.652,631.494 485.923,631.494C478.718,631.494 475.265,628.956 474.592,623.285C473.92,617.614 476.472,609.561 482.403,598.817C495.738,574.66 522.02,561.058 627.17,523.488C635.145,520.639 643.263,517.672 645.188,516.904C648.53,515.569 682.66,502.912 701.674,495.954C710.438,492.748 722.506,487.16 722.506,486.55C722.506,485.918 718.903,485.788 714.411,486.811C709.918,487.833 703.871,489.529 697.84,491.533C689.865,494.184 681.942,496.635 680.16,496.998C678.379,497.361 676.336,498.303 676.022,498.811C675.708,499.319 674.895,499.497 673.69,499.5C672.485,499.504 669.977,500.236 668.402,501.058C666.826,501.879 665.033,502.497 664.134,502.5C663.234,502.504 660.977,503.236 659.402,504.058C657.826,504.879 656.103,505.494 655.287,505.494C654.47,505.494 652.186,506.138 650.453,506.876C648.72,507.614 642.168,509.888 635.843,511.949C629.518,514.009 622.948,516.299 621.298,517.017C619.648,517.734 611.367,520.601 602.842,523.407C579.336,531.143 558.769,538.476 540.815,545.521C537.79,546.708 534.074,548.062 532.515,548.546C527.282,550.17 504.3,561.79 498.228,565.884C482.652,576.385 469.111,593.434 463.703,609.337C457.298,628.169 457.02,631.546 458.343,677.422C458.995,700.023 459.548,724.802 459.574,732.502C459.63,749.652 461.192,763.764 462.71,764.27C463.331,764.477 463.494,764.633 463.494,765.203C463.494,767.266 470.631,778.035 474.76,782.123C479.03,786.351 486.329,790.717 490.113,791.335Z" fill="#FFFDFD"/>
<path d="M413.931,772.347C414.706,771.522 415.484,769.867 415.492,769.088C415.496,768.699 415.472,768.696 415.579,768.544C415.686,768.391 415.06,768.443 415.219,768.601C415.378,768.76 416.484,768.633 417.095,768.207C417.707,767.781 418.548,767.048 419.317,766.243C420.977,764.507 422.176,763.672 423.064,764.013C423.911,764.338 425.474,763.62 425.812,762.739C426.208,761.707 425.366,760.494 424.246,760.494C423.566,760.494 423.731,761.087 423.81,760.855C423.889,760.622 424.174,760.484 425.068,759.858C427.11,758.427 427.503,757.1 427.463,748.191C427.414,737.142 425.701,705.632 425.18,705.173C423.031,703.279 419.716,704.092 415.318,707.996C410.271,712.478 409.786,713.921 410.955,721.329C411.215,722.975 411.329,723.654 411.128,724.179C410.927,724.705 410.912,724.494 410.024,724.494C408.911,724.494 407.494,725.45 407.494,726C407.494,726.861 407.403,726.639 406.631,726.467C405.858,726.294 405.396,726.031 405.133,725.111C404.827,724.038 403.851,726.501 404.123,731.072C404.395,735.644 404.925,742.508 405.646,750.545C406.239,757.145 407.175,763.26 407.6,763.81C408.026,764.36 408.626,766.611 409.055,769.086C409.401,771.083 409.712,772.356 409.923,772.634C410.133,772.912 411.179,772.365 411.504,771.256L411.801,768.5L411.471,771C411.548,772.098 411.871,773.105 412.093,773.245C412.316,773.386 413.312,773.005 413.931,772.347Z" fill="#FE453D"/>
<path d="M577.246,742.382C577.454,737.904 577.452,731.991 577.244,729.319C577.14,727.983 576.035,728.247 575.967,729.723C575.898,731.198 575.856,733.925 575.856,737.5C575.856,741.554 575.894,744.077 575.959,744.913C576.024,745.749 577.129,744.921 577.246,742.382Z" fill="#A48C8C"/>
<path d="M460.249,719.86C460.451,714.547 460.449,707.743 460.245,704.806C460.143,703.337 459.041,703.705 458.974,705.456C458.907,707.207 458.866,710.375 458.867,714.5C458.868,719.346 458.902,722.277 458.965,723.18C459.028,724.084 460.13,722.981 460.249,719.86Z" fill="#A48C8C"/>
<path d="M406.388,727.318C407.216,727.496 408.506,726.664 408.506,726.073C408.506,725.483 408.911,725.506 410.024,725.506C410.912,725.506 411.873,725.066 412.073,724.54C412.274,724.014 412.215,722.818 411.955,721.171C410.785,713.759 410.94,713.236 415.989,708.773C419.368,705.787 420.998,704.754 422.424,705.104C423.439,705.353 424.576,704.966 424.788,701.154C425,697.342 424.915,689.607 424.738,674.301C424.541,657.357 424.132,642.673 423.86,641.859C423.656,641.246 421.606,642.671 420.53,644.578C419.454,646.486 418.365,649.039 418.371,650.003C418.373,650.278 417.898,650.324 416.911,650.689C415.917,651.057 413.995,653.489 412.78,655.606C411.565,657.723 411.234,660.506 412.016,660.506C412.991,660.506 412.75,660.493 412.433,661.33C412.116,662.166 411.484,662.899 410.261,663.554C408.886,664.29 407.494,665.646 407.494,666.023C407.494,666.4 406.55,667.528 405.232,668.95C403.914,670.372 402.496,672.277 402.198,672.997C401.998,673.482 402.378,673.391 402.035,673.282C401.692,673.173 401.486,672.92 400.88,672.179C399.917,671.002 398.64,673.373 398.826,678.155C399.013,682.938 399.77,690.519 401.071,700.351C401.856,706.282 402.494,713.978 402.494,717.534C402.494,719.356 402.609,721.05 402.789,722.211C402.968,723.372 403.718,724.506 404,724.506C404.55,724.506 404.491,724.56 404.488,725.247C404.484,725.935 405.559,727.14 406.388,727.318Z" fill="#F1A9A8"/>
<path d="M374.623,724.313C375.423,724.52 376.46,724.286 376.371,721.642C376.283,718.999 375.697,713.405 374.519,701.948C373.417,691.223 371.823,675.252 370.978,666.452C368.08,636.287 366.37,619.431 365.396,611.439C362.016,583.709 360.992,546.676 363.389,538.137C370.162,514.007 384.554,499.793 414.189,487.872C423.792,484.008 431.953,483.243 438.052,485.144C444.151,487.045 447.494,491.143 447.494,498C447.494,505.323 444.113,508.441 432.314,512.52C422.467,515.925 419.29,517.364 410.281,522.498C403.561,526.329 403.271,526.583 399.08,532.197C389.218,545.41 388.286,562.697 394.523,623.052C395.063,628.277 395.965,640.34 396.53,649.887C397.026,658.264 397.659,664.371 398.461,668.312C399.263,672.254 400.74,674.506 401.949,674.506C402.527,674.506 403.506,673.573 403.506,673.052C403.506,672.53 404.496,671.233 405.871,669.749C407.246,668.266 408.506,666.4 408.506,666.023C408.506,665.646 409.364,665.182 410.739,664.446C411.962,663.792 413.063,662.525 413.38,661.688C413.697,660.852 412.991,659.494 412.016,659.494C411.16,659.494 412.389,658.227 413.672,656.091C414.956,653.955 416.471,651.931 417.571,651.524C418.15,651.31 418.741,651.022 419.066,650.811C419.39,650.6 419.666,649.672 419.58,649.566C418.963,648.808 422.496,641.907 423.475,641.956C423.75,641.969 424.532,641.26 424.765,640.634C424.999,640.009 425.214,639.004 425.293,638.042C430.275,577.759 459.745,543.063 527.176,517.979C543.433,511.931 551.522,509.107 578.661,500.001C595.711,494.281 632.387,481.909 660.162,472.508C687.937,463.107 727.986,449.586 749.161,442.461C776.526,433.253 790.04,428.712 796.7,426.256C803.36,423.799 803.512,422.952 803.521,422.062C803.544,419.599 806.264,412.368 810.189,404.22C814.395,395.489 815.654,393.506 818.048,393.506C819.889,393.506 821.506,391.087 821.506,387.918C821.506,386.863 821.45,386.506 822,386.506C822.55,386.506 823.506,385.297 823.506,384.437C823.506,383.502 823.619,383.492 824.665,383.67C825.628,383.833 827.103,383.149 827.24,382.608C827.378,382.067 826.673,380.987 826.26,380.979C824.951,380.952 823.506,379.918 823.506,378.906C823.506,378.599 823.164,378.956 823.495,378.966C823.826,378.976 824.087,379.085 824.696,379.411C826.04,380.13 827.197,380.497 827.627,380.361C828.058,380.226 828.506,379.142 828.506,378C828.506,376.161 825.898,375.118 821.081,376.013C816.264,376.908 808.564,379.265 797.333,383.192C793.483,384.538 789.011,386.014 787.361,386.484C784.243,387.371 778.765,389.253 775.313,390.622C772.301,391.817 754.228,397.972 746.847,400.316C743.272,401.452 735.724,404.015 730.094,406.006C707.249,414.083 704.095,414.432 697.831,408.169C693.842,404.179 693.506,403.559 693.506,399.494C693.506,393.528 695.344,389.224 699.103,386.548C701.734,384.674 759.217,364.765 790.152,355.001C795.927,353.178 804.72,350.238 809.67,348.476C829.316,341.479 832.871,340.897 838.307,344.622C843.197,347.972 844.494,350.903 844.494,358.344L845,364.879L849.675,364.69C851.681,364.598 853.235,364.315 853.995,363.665C854.755,363.016 854.218,361.494 852.338,361.479C851.631,361.473 851.691,361.686 851.619,361.551C851.546,361.416 851.607,361.867 852.132,361.535C852.88,361.061 854.004,360.973 855.117,361.264C855.83,361.45 856.676,361.433 856.928,361.293C857.18,361.153 857.447,360.241 857.283,359.749C857.028,358.983 857.51,358.474 858.654,357.874C859.798,357.275 860.872,355.672 860.722,354.993C860.646,354.648 860.551,354.906 860.821,354.734C861.092,354.562 861.154,354.568 861.649,354.646C862.624,354.8 865.334,353.29 867.135,351.467C869.774,348.796 870.005,348.417 871.158,349.374C872.466,350.459 874.18,350.344 874.731,349.381C875.282,348.418 875.496,346.166 875.201,343.308C873.188,323.799 853.689,308.592 830.479,308.511C825.78,308.495 807.355,311.964 798.36,314.564C790.45,316.85 774.265,321.71 770.344,322.977C766.372,324.26 763.248,325.214 748.855,329.535C744.73,330.773 740.493,332.207 739.538,332.682C738.583,333.158 737.224,333.509 736.254,333.528C735.284,333.547 732.48,334.482 730.28,335.544C728.08,336.607 725.569,337.441 724.442,337.46C723.314,337.479 721.629,338.023 721.107,338.505C720.584,338.988 717.873,340.052 714.848,341.006C707.448,343.339 691.213,349.883 690.59,350.743C690.315,351.123 689.337,351.563 688.099,351.95C686.862,352.336 685.494,353.554 685.494,354.067C685.494,354.58 685.402,354.494 684.67,354.494C682.478,354.494 671.046,365.308 667.178,371.136C663.387,376.847 659.783,385.71 654.509,402.347C646.721,426.916 631.257,445.745 611.288,454.934C609.088,455.946 604.588,458.018 601.288,459.538C594.868,462.495 573.234,470.213 563.359,473.07C560.059,474.025 553.733,476.074 549.333,477.613C544.933,479.153 540.046,480.679 538.396,481.028C536.746,481.376 534.403,482.069 533.303,482.532C527.452,484.998 510.808,489.494 507.502,489.494C499.673,489.494 493.86,482.112 495.125,473.829C496.767,463.075 496.14,463.617 560.657,442.489C585.142,434.47 606.506,424.582 606.506,421.64C606.506,421.464 605.697,420.806 605.062,420.69C604.427,420.574 603.46,420.494 602.497,420.494C599.669,420.494 598.381,419.707 594.348,415.82C588.723,410.398 588.115,408.213 591.512,403.895C592.95,402.066 593.261,400.289 592.632,400.033C592.002,399.777 589.864,400.253 586.711,401.385C581.101,403.398 548.705,413.936 528.848,420.207C522.523,422.204 516.415,424.203 515.315,424.636C514.215,425.068 510.665,426.153 507.365,427.067C504.065,427.982 500.606,429.086 499.781,429.483C498.956,429.88 492.274,432.085 484.849,434.414C477.424,436.744 470.592,439.034 469.767,439.463C468.942,439.891 464.978,441.231 460.853,442.485C453.985,444.571 439.172,449.565 405.835,461.033C384.837,468.256 367.824,475.965 364.619,479.64C364.344,479.956 362.879,480.977 361.229,482.025C347.915,490.481 334.089,509.868 330.116,525.657C327.965,534.203 327.083,557.064 328.372,571.046C330.11,589.907 332.397,611.141 333.437,618.075C333.973,621.65 335.107,630.41 335.958,637.56C336.81,644.71 338.463,657.767 339.631,666.567C340.798,675.367 341.973,684.305 342.242,686.434C342.412,687.779 342.658,688.821 342.879,689.228C343.1,689.636 344.227,689.618 344.529,689.141C344.875,688.595 344.504,688.545 344.637,688.59C344.77,688.634 344.473,688.507 344.479,689.171C344.487,690.088 345.132,691.446 345.545,691.629C345.957,691.812 348.003,695.671 350.395,700.493C356.426,712.654 366.069,722.101 374.623,724.313Z" fill="#FFFDFD"/>
<path d="M576.248,713.386C576.451,708.362 576.45,701.782 576.246,698.831C576.144,697.355 575.041,697.659 574.974,699.315C574.907,700.971 574.865,704.013 574.865,708C574.865,712.511 574.902,715.308 574.966,716.232C575.03,717.156 576.133,716.228 576.248,713.386Z" fill="#A48C8C"/>
<path d="M425.252,678.01C425.435,668.935 425.436,656.983 425.254,651.483C425.164,648.733 424.069,649.221 424.009,652.212C423.949,655.202 423.911,660.712 423.91,668C423.909,675.287 423.946,680.073 424.006,681.885C424.066,683.698 425.16,682.548 425.252,678.01Z" fill="#A48C8C"/>
<path d="M518.25,683.393C518.447,677.275 518.446,669.356 518.249,665.848C518.15,664.095 517.05,664.482 516.985,666.498C516.92,668.514 516.88,672.188 516.88,677C516.88,682.398 516.915,685.736 516.977,686.839C517.039,687.941 518.14,686.824 518.25,683.393Z" fill="#A48C8C"/>
<path d="M459.248,683.858C459.454,679.093 459.451,672.956 459.243,670.296C459.139,668.967 458.035,669.294 457.967,670.864C457.899,672.435 457.857,675.288 457.858,679C457.859,683.387 457.895,686.043 457.958,686.859C458.022,687.675 459.126,686.673 459.248,683.858Z" fill="#A48C8C"/>
<path d="M485.738,632.303L491.938,632.094L495.456,625.451C505.583,603.115 525.382,587.751 558.669,575.933C587.636,565.649 606.18,559.053 617.67,554.947C624.82,552.392 645.962,545.122 664.662,538.789C727.606,517.469 724.696,518.141 731.169,520.846C737.98,523.691 740.985,531.395 738.045,538.43C737.066,540.774 736.588,542.366 736.797,542.721C737.005,543.075 738.563,542.853 740.448,542.053C746.089,539.656 758.601,535.983 759.274,536.656C759.452,536.834 760.733,535.986 761.34,534.703C761.947,533.42 762.716,531.513 763.46,529.39C768.729,514.345 775.319,504.984 788.664,493.576C807.503,477.471 822.239,470.467 874.162,452.865C878.287,451.467 884.595,449.278 888.17,448.003C891.745,446.729 902.566,443.091 912.324,439.892L929.985,433.577L931.574,430.038C932.17,428.092 933.636,424.705 934.899,422.23C936.163,419.755 937.518,416.421 937.86,414.961C938.458,412.414 937.169,410.818 925.335,414.292C913.5,417.766 890.461,425.716 846.334,441.042C834.234,445.244 818.709,450.636 811.834,453.024C804.959,455.411 787.526,461.33 773.087,466.178C765.374,468.768 758.965,471.04 754.628,472.701C750.291,474.361 748.019,476.368 748.515,476.541C748.978,476.704 749.037,476.713 749.173,476.924C749.309,477.136 749.425,476.64 749.169,476.798C747.177,478.023 717.263,489.861 714.404,490.556C712.741,490.96 707.05,492.881 701.825,494.803C675.316,504.555 647.926,514.721 644.812,515.964C642.887,516.732 634.805,519.686 626.83,522.535C583.651,537.963 545.962,552.598 529.81,560.209C498.272,575.069 483.051,589.451 475.494,611.414C470.908,624.745 474.443,631.761 485.738,632.303Z" fill="#FE453D"/>
<path d="M880.65,596.278C881.624,596.431 885.82,595.406 889.67,594.028C893.079,592.809 894.955,592.096 895.245,591.85C895.535,591.605 894.007,590.847 891.699,591.133C887.9,591.605 887.373,591.723 886.877,590.431C886.393,589.169 885.029,588.39 884.115,588.672C883.202,588.954 881.845,590.2 880.677,591.972C879.687,593.473 879.104,594.517 879.054,594.991C879.004,595.466 879.831,596.149 880.65,596.278Z" fill="#E92D2B"/>
<path d="M892.023,591.753C894.501,591.614 898.949,590.499 901.699,589.323C907.489,586.848 924.663,580.733 948.162,572.778C957.237,569.706 973.224,564.063 983.674,560.244C994.124,556.424 1010.54,550.55 1020.27,547.161L1037.86,540.5L1040.58,535.5C1041.81,532.75 1043.19,530.2 1043.79,529.446C1044.4,528.692 1046.74,524.692 1048.94,520.648C1051.14,516.604 1055.12,510.822 1057.86,507.686C1060.61,504.551 1063.42,500.96 1064.04,499.818C1067.16,494.094 1072.6,485.731 1074.58,483.619C1078.04,479.94 1077.9,467.158 1074.26,460.202C1072.79,457.407 1071.41,455.307 1070.29,454.14C1069.16,452.974 1067.58,452.546 1066.81,453.022C1066.25,453.366 1062.99,452.615 1059.05,451.419C1046.28,447.538 1034.89,448.815 1009.84,457.039C967.375,470.985 962.248,472.694 960.299,473.539C959.199,474.016 952.26,476.493 944.835,479.061C918.693,488.102 915.156,489.374 896.82,496.334C855.67,511.955 844.826,517.444 834.512,527.756C819.878,542.387 819.573,561.678 833.711,571.034C838.391,574.131 847.801,574.186 858.382,571.048L864.115,568.825L860.285,566.075C852.209,560.953 849.581,553.814 853.314,546.497C856.904,539.46 856.916,539.564 894.666,526.48C902.916,523.62 913.27,519.999 917.67,518.434C922.07,516.87 933.763,512.841 943.663,509.479C961.876,503.294 968.983,500.798 990.672,492.969C1012.69,485.02 1030.27,479.506 1033.7,479.506C1043.74,479.506 1049.5,489.519 1044.96,499.037C1042.33,504.555 1039.4,506.02 1016.83,514.015C1011.61,515.866 1005.96,517.936 1004.31,518.606C1002.66,519.276 994.583,522.171 986.333,525.049C978.083,527.927 963.682,532.984 954.332,536.285C944.982,539.587 930.251,544.783 921.596,547.834C912.941,550.884 904.987,553.501 903.806,553.678C902.188,553.92 901.168,555.252 900.982,557.671C900.761,560.536 890.392,579.126 885.457,585.546C884.13,587.272 884.184,589.396 885.276,590.356C886.369,591.316 888.929,591.926 892.023,591.753Z" fill="#FE453D"/>
<path d="M862.191,568.287C862.936,568.954 874.881,565.42 886.624,560.786C892.64,558.413 897.973,556.506 898.702,556.506C899.431,556.506 901.031,556.071 901.986,555.602C902.942,555.134 911.312,552.185 920.662,549.018C930.012,545.852 945.319,540.554 954.669,537.248C964.019,533.942 978.417,528.883 986.667,526.004C994.917,523.126 1003.04,520.214 1004.69,519.544C1006.34,518.874 1011.94,516.82 1017.17,514.969C1039.74,506.974 1043.24,504.99 1045.87,499.472C1050.41,489.955 1043.74,478.494 1033.7,478.494C1030.27,478.494 1012.35,484.068 990.328,492.017C968.639,499.846 961.55,502.336 943.337,508.521C933.437,511.883 921.73,515.916 917.33,517.481C912.93,519.045 902.584,522.664 894.334,525.523C856.747,538.552 855.989,539.028 852.521,545.825C848.937,552.851 851.136,560.782 857.953,565.35C860.062,566.764 861.939,568.062 862.191,568.287Z" fill="#491717"/>
<path d="M1162.65,545.934C1165.72,545.954 1168.41,545.888 1170.22,545.768C1172.04,545.648 1173.24,544.541 1172.92,544.339C1171.54,543.454 1158.6,543.363 1154.4,544.237C1153.57,544.408 1154.14,545.572 1155.61,545.698C1157.09,545.824 1159.58,545.914 1162.65,545.934Z" fill="#F1A9A8"/>
<path d="M1038.75,540.261C1039.19,540.418 1042.99,539.378 1046.78,537.953C1050.58,536.527 1056.6,534.31 1060.17,533.021C1070.89,529.161 1078.16,525.426 1078.84,523.672C1079.6,521.696 1079.49,498.066 1078.62,481.973C1078.33,476.537 1078.15,473.646 1077.96,472.855C1077.77,472.064 1076.57,473.326 1076.18,475.926C1075.72,479.05 1074.66,482.05 1073.56,483.228C1071.81,485.093 1066.1,493.928 1063.15,499.334C1062.53,500.476 1059.84,503.883 1057.1,507.016C1054.36,510.149 1050.79,515.159 1049.25,518.034C1047.71,520.909 1045.49,524.81 1044.31,526.735C1042.47,529.72 1040.78,532.897 1039.69,535.31C1038.59,537.723 1038.34,540.112 1038.75,540.261Z" fill="#E92D2B"/>
<path d="M714.454,491.185C715.642,491.581 748.283,478.749 749.802,477.282C750.897,476.224 749.385,475.213 746.136,475.979C742.888,476.744 737.389,478.442 729.668,481.061C724.527,482.806 720.803,484.163 718.734,485.035C716.665,485.908 716.465,487.279 717.803,487.139C720.485,486.858 721.269,486.351 721.272,486.674C721.275,486.997 720.26,487.176 717.585,488.221C716.421,488.676 715.397,489.174 714.825,489.539C714.253,489.904 714.158,491.086 714.454,491.185Z" fill="#F1A9A8"/>
<path d="M930.736,433.172C932.412,433.684 956.895,424.547 957.806,423.069C959.314,420.625 956.091,414.043 952.026,411.565C948.259,409.268 942.668,409.073 935.366,411.074C933.214,411.664 931.918,412.081 931.74,412.218C931.563,412.356 932.692,413.205 934.308,413.032C937.939,412.641 937.494,412.094 936.869,414.694C936.515,416.172 935.332,419.067 934.189,421.267C932.904,423.74 931.728,426.547 931.008,428.694C930.287,430.841 930.323,433.046 930.736,433.172Z" fill="#E92D2B"/>
<path d="M803.478,423.193C804.025,423.375 811.971,421 820.734,417.918C829.498,414.837 841.382,410.778 847.157,408.895C852.932,407.011 858.607,405.047 859.707,404.554C860.807,404.061 864.591,402.657 868.166,401.416C879.126,397.609 880.202,395.389 878.508,377.951C877.947,372.176 877.196,362.549 876.838,356.535C876.619,352.872 876.384,350.265 876.141,348.81C875.898,347.356 874.669,346.908 874.398,347.64C873.495,350.08 873.309,350.193 871.619,348.504C871.194,348.078 870.117,347.91 869.421,348.256C868.724,348.602 867.69,349.466 866.452,350.719C864.63,352.562 862.781,353.8 861.807,353.647C861.312,353.569 860.548,353.708 860.278,353.88C860.008,354.052 859.658,354.866 859.734,355.211C859.883,355.89 859.329,356.379 858.185,356.978C857.04,357.577 856.068,359.303 856.323,360.069C856.487,360.561 856.689,360.268 856.437,360.408C856.185,360.548 856.086,360.471 855.373,360.285C854.26,359.994 852.338,360.206 851.59,360.68C851.065,361.012 850.655,361.896 850.728,362.031C850.8,362.166 851.622,362.485 852.329,362.491C853.346,362.499 853.502,362.397 853.272,363.091C852.999,363.912 851.267,364.08 849.146,364.186C847.026,364.293 845.505,364.496 845.502,363.688C845.501,363.361 844.412,363.072 844.059,363.435C843.705,363.799 843.148,364.553 842.612,365.432C839.95,369.797 837.493,371.179 828.804,373.421C826.08,374.124 824.347,374.643 823.685,374.96C823.023,375.277 823.545,376.389 824.737,376.42C827.291,376.487 827.494,376.428 827.494,378C827.494,379.142 827.754,379.261 827.323,379.396C826.893,379.532 826.517,379.238 825.173,378.519C824.564,378.193 823.857,377.965 823.526,377.955C823.195,377.945 822.494,378.599 822.494,378.906C822.494,379.918 824.93,381.964 826.24,381.991C826.652,381.999 826.397,381.818 826.26,382.359C826.122,382.9 825.797,382.835 824.835,382.672C823.788,382.495 822.494,383.502 822.494,384.437C822.494,385.297 822.55,385.494 822,385.494C821.45,385.494 820.494,386.863 820.494,387.918C820.494,391.087 819.889,392.494 818.048,392.494C815.577,392.494 813.42,395.119 808.857,404.784C806.443,409.898 804.649,414.271 803.658,417.362C802.668,420.453 802.777,422.959 803.478,423.193Z" fill="#F1A9A8"/>
<path d="M704.49,413.348C708.443,413.81 716.396,411.892 729.668,407.212C735.718,405.078 743.578,402.41 747.153,401.277C754.478,398.955 772.641,392.771 775.687,391.563C779.138,390.194 784.52,388.345 787.639,387.457C789.289,386.987 793.816,385.497 797.666,384.157C805.55,381.412 825.307,375.305 832.129,373.504C841.245,371.098 845.496,365.881 845.502,357.155C845.507,350.981 843.503,346.955 838.879,343.787C833.443,340.062 828.976,340.526 809.33,347.522C804.38,349.285 795.623,352.213 789.848,354.036C758.912,363.8 701.147,383.85 698.516,385.724C694.75,388.405 692.494,393.53 692.494,399.533C692.494,403.634 693.111,404.944 696.946,408.678C699.571,411.233 702.689,413.137 704.49,413.348Z" fill="#491717"/>
</g>
</svg>
